<?xml version="1.0" encoding="UTF-8"?>
<svg id="_图层_2" data-name="图层_2" xmlns="http://www.w3.org/2000/svg" viewBox="0 0 175.74 128.92">
  <defs>
    <style>
      .cls-1 {
        fill: #f7f6fb;
      }
    </style>
  </defs>
  <g id="_图层_2-2" data-name="图层_2">
    <polygon class="cls-1" points="175.74 21.99 171.41 22.17 160.82 22.72 150.54 23.37 140.54 24.16 130.8 25.11 121.29 26.27 111.96 27.71 102.81 29.49 93.8 31.75 84.93 34.61 76.17 38.23 67.53 42.74 59.01 48.31 54.79 51.53 50.61 55.05 46.46 58.89 42.34 63.04 38.26 67.52 34.23 72.32 30.24 77.43 26.29 82.86 18.55 94.59 11.04 107.38 3.79 121.08 .08 128.75 0 128.92 3.91 119.75 7.74 110.93 11.47 102.45 15.13 94.34 18.7 86.58 22.19 79.19 25.61 72.16 28.98 65.51 32.3 59.23 35.61 53.34 38.92 47.82 42.28 42.67 45.72 37.9 49.28 33.5 52.98 29.45 56.86 25.75 60.94 22.39 65.21 19.34 69.67 16.6 74.29 14.15 83.87 10 93.59 6.75 103.1 4.24 112.13 2.38 120.55 1.09 128.32 .34 133.23 .06 137.69 0 141.69 .13 145.21 .41 148.24 .77 150.77 1.17 152.81 1.57 154.39 1.91 155.55 2.18 156.38 2.38 157.54 2.7 159.06 3.41 160.19 4.05 161.57 4.87 164.8 7 168.06 9.48 170.74 12.04 172.71 14.59 174.18 17.18 175.26 19.84 175.74 21.99"/>
  </g>
</svg>