<?xml version="1.0" encoding="UTF-8"?>
<svg id="_图层_2" data-name="图层_2" xmlns="http://www.w3.org/2000/svg" xmlns:xlink="http://www.w3.org/1999/xlink" viewBox="0 0 721.14 486.12">
  <defs>
    <style>
      .cls-1 {
        fill: #e0ab58;
      }

      .cls-2 {
        font-size: 7.63px;
      }

      .cls-2, .cls-3, .cls-4, .cls-5, .cls-6, .cls-7 {
        fill: #979797;
      }

      .cls-2, .cls-3, .cls-4, .cls-5, .cls-7 {
        font-family: MicrosoftYaHei-Bold, 'Microsoft YaHei';
        font-weight: 700;
      }

      .cls-8 {
        fill: #c44c4f;
      }

      .cls-3, .cls-4 {
        font-size: 7.63px;
      }

      .cls-9 {
        fill: #d6d4d5;
      }

      .cls-10 {
        fill: #b23541;
      }

      .cls-11 {
        stroke: #b23541;
      }

      .cls-11, .cls-12, .cls-13, .cls-14, .cls-15 {
        fill: #f7f6fb;
      }

      .cls-11, .cls-12, .cls-13, .cls-16, .cls-17 {
        stroke-linecap: round;
        stroke-linejoin: round;
      }

      .cls-18 {
        letter-spacing: 0em;
      }

      .cls-19 {
        fill: #fff;
      }

      .cls-20 {
        letter-spacing: -.07em;
      }

      .cls-4 {
        glyph-orientation-vertical: 0deg;
        text-orientation: upright;
        writing-mode: tb;
      }

      .cls-12, .cls-14, .cls-16 {
        stroke: #979797;
      }

      .cls-21, .cls-16, .cls-17 {
        fill: none;
      }

      .cls-22 {
        letter-spacing: -.01em;
      }

      .cls-23 {
        letter-spacing: .02em;
      }

      .cls-24 {
        letter-spacing: 0em;
      }

      .cls-25 {
        clip-path: url(#clippath-1);
      }

      .cls-26 {
        letter-spacing: .02em;
      }

      .cls-27 {
        fill: #a9353f;
      }

      .cls-28 {
        letter-spacing: -.03em;
      }

      .cls-13 {
        stroke: #a9353f;
      }

      .cls-14 {
        stroke-miterlimit: 10;
      }

      .cls-29 {
        letter-spacing: -.02em;
      }

      .cls-5 {
        font-size: 7.63px;
      }

      .cls-30 {
        letter-spacing: -.04em;
      }

      .cls-31 {
        letter-spacing: 0em;
      }

      .cls-32 {
        letter-spacing: -.06em;
      }

      .cls-33 {
        fill: #db654c;
      }

      .cls-34 {
        letter-spacing: 0em;
      }

      .cls-7 {
        font-size: 6.04px;
      }

      .cls-35 {
        letter-spacing: -.01em;
      }

      .cls-36 {
        letter-spacing: -.02em;
      }

      .cls-37 {
        letter-spacing: -.01em;
      }

      .cls-38 {
        letter-spacing: -.01em;
      }

      .cls-39 {
        letter-spacing: -.02em;
      }

      .cls-40 {
        letter-spacing: -.04em;
      }

      .cls-41 {
        letter-spacing: -.04em;
      }

      .cls-42 {
        clip-path: url(#clippath);
      }

      .cls-43 {
        letter-spacing: -.03em;
      }

      .cls-44 {
        fill: #4c5673;
      }

      .cls-17 {
        stroke: #646464;
      }
    </style>
    <clipPath id="clippath">
      <rect class="cls-21" x="224.26" y="188.77" width="5.42" height="6.26"/>
    </clipPath>
    <clipPath id="clippath-1">
      <rect class="cls-21" x="224.28" y="289.05" width="5.42" height="6.26"/>
    </clipPath>
  </defs>
  <g id="_图层_1-2" data-name="图层_1">
    <path class="cls-15" d="M720.45,364.81l-1.34-12.1-1.88-12.29-2.33-12.45-2.68-12.6-2.97-12.75-3.21-12.93-3.42-13.14-3.63-13.39-3.84-13.69-4.08-14.01-4.34-14.36-4.63-14.71-4.94-15.03-5.28-15.28-5.63-15.44-5.98-15.46-6.33-15.3-6.66-14.97-6.97-14.43-7.25-13.7-7.51-12.79-7.74-11.73-3.95-5.43-3.99-5.11-4.04-4.8-4.08-4.48-4.11-4.15-4.15-3.84-4.18-3.52-4.22-3.22-8.52-5.57-8.64-4.52-8.76-3.62-8.88-2.86-9.01-2.26-9.16-1.79-9.32-1.43-9.51-1.16-9.74-.95-9.99-.79-10.28-.66-10.59-.55-10.93-.45-2.91-.1-65.85,76.65c-.17.2-.35.4-.52.6-10.05,11.27-24.72,15.97-38.6,13.81-7.52-1.17-14.82-4.37-21.03-9.62-.28-.24-.56-.48-.84-.73-5.81-5.18-9.87-11.58-12.15-18.47-4.66-14.06-1.88-30.15,8.69-42L347.17.05h-.64s-13.64-.05-13.64-.05l-13.24.02-12.84.08-12.44.15-12.05.21-11.66.29-11.29.37-10.93.45-10.59.55-10.28.66-9.99.79-9.74.95-9.52,1.16-9.32,1.43-9.15,1.79-9.01,2.26-8.88,2.86-8.75,3.62-8.64,4.52-8.53,5.57-4.21,3.22-4.18,3.52-4.15,3.84-4.11,4.15-4.08,4.48-4.04,4.8-3.99,5.11-3.95,5.43-7.74,11.73-7.51,12.79-7.25,13.7-6.97,14.43-6.66,14.97-6.33,15.3-5.98,15.46-5.63,15.44-5.28,15.28-4.94,15.03-4.62,14.71-4.34,14.36-4.08,14.01-3.84,13.69-3.63,13.39-3.42,13.14-3.21,12.93-2.97,12.75-2.69,12.6-2.33,12.45-1.89,12.29-1.34,12.1-.69,11.88.05,11.6.86,11.26,1.72,10.86,2.59,10.39,3.43,9.84,4.18,9.22,4.83,8.53,5.36,7.78,5.74,6.97,5.98,6.11,6.12,5.2,6.16,4.26,6.14,3.31,6.08,2.34,6.01,1.37,5.93.39,12.49-13.25,11.89-12.63,11.3-12,10.69-11.36,10.09-10.72,9.49-10.06,8.88-9.4,8.29-8.72,7.71-8.04,7.15-7.35,6.63-6.66,6.15-5.96,5.73-5.27,5.37-4.59,5.11-3.93,4.94-3.29,4.89-2.7,4.97-2.15,5.2-1.67,5.59-1.26,6.13-.92,6.82-.65,7.64-.46,8.57-.32,9.58-.23,10.64-.17,11.75-.14,12.87-.14,14.01-.14,15.15-.15,16.28-.17,17.41-.18,17.41.18,16.28.17,15.14.15,14.01.14,12.87.14,11.75.14,10.64.17,9.58.23,8.56.32,7.64.46,6.81.65,6.13.92,5.59,1.26,5.2,1.67,4.97,2.15,4.89,2.7,4.94,3.29,5.11,3.93,5.37,4.59,5.73,5.27,6.15,5.96,6.63,6.66,7.15,7.35,7.71,8.04,8.29,8.72,8.88,9.4,9.48,10.06,10.09,10.72,10.69,11.36,11.3,12,11.89,12.63,12.49,13.25,5.93-.39,6.01-1.37,6.09-2.34,6.14-3.31,6.16-4.26,6.12-5.2,5.99-6.11,5.73-6.97,5.36-7.78,4.83-8.53,4.19-9.22,3.43-9.84,2.59-10.39,1.72-10.86.86-11.26.05-11.6-.69-11.88ZM86.01,444.35l6.26-7.21,2.15,8.55-8.41-1.35ZM307.52,91.65c.33,0,.64.14.85.35.22.22.35.52.35.86,0,.66-.54,1.21-1.21,1.21s-1.21-.54-1.21-1.21.54-1.21,1.21-1.21ZM291.61,124.4c0-8.79,7.13-15.91,15.91-15.91.05,0,.1,0,.16,0,8.72.09,15.75,7.17,15.75,15.91h0c0,5.12-2.41,9.67-6.16,12.57-2.69,2.09-6.08,3.34-9.75,3.34-8.79,0-15.91-7.13-15.91-15.91h0ZM243.37,112.83l4.82,7.23h-9.65l4.82-7.23ZM248.2,132.26l-4.82,7.23-4.82-7.23h9.65ZM181.88,20.95l4.82,7.23h-9.65l4.82-7.23ZM127.12,397.02l6.26-7.21,2.16,8.55-8.41-1.35ZM195.27,247.06l-7.23-4.82,7.23-4.82v9.64ZM177.29,171.98c-25.31,0-45.81-20.52-45.81-45.82v-.02c0-25.31,20.52-45.81,45.83-45.81,25.3,0,45.81,20.52,45.81,45.83v.02c0,25.3-20.52,45.81-45.82,45.81ZM323.92,242.25c0,30.37-24.62,54.98-54.99,54.97-30.37,0-54.98-24.62-54.97-54.99h0c0-30.38,24.62-54.99,54.99-54.99,30.37,0,54.98,24.62,54.98,54.99v.02ZM617.22,126.16c0,13.54-10.98,24.51-24.51,24.51s-24.52-10.98-24.52-24.51v-.02c0-13.54,10.99-24.51,24.53-24.51,13.54,0,24.51,10.99,24.51,24.53ZM591.83,170.2v9.64l-7.23-4.82,7.23-4.82ZM560.32,112.67h-6.84v-.33l37.36-38.03v7.29l-30.52,31.07ZM565.07,111.35c-.23.44-.45.88-.67,1.32h-.63l1.3-1.32ZM560.96,126.09l-7.23,4.82v-9.64l7.23,4.82ZM553.48,108.81v-1.69c.89-.29,1.76-.61,2.61-.98l-2.61,2.66ZM575.11,79.5l15.73-16.01v7.29l-17.93,18.25c1.23-3.05,1.97-6.26,2.2-9.54ZM574.22,69.59l16.61-16.91v7.29l-15.68,15.96c-.09-2.14-.41-4.27-.93-6.34ZM590.84,85.12v7.29l-2.68,2.73c-3.78.55-7.43,1.79-10.76,3.66l13.44-13.68ZM590.84,49.16l-17.42,17.74c-.61-1.73-1.36-3.4-2.26-4.99l19.69-20.04v7.29ZM589.78,39.42l-19.97,20.33c-.96-1.42-2.04-2.77-3.22-4.01l16.02-16.31h7.17ZM579.16,39.42l-14.33,14.59c-1.28-1.15-2.65-2.19-4.1-3.12l11.27-11.47h7.16ZM561.39,39.42h7.15l-10,10.19c-1.62-.86-3.31-1.57-5.05-2.13l7.91-8.05ZM539.26,20.95l4.82,7.23h-9.64l4.82-7.23ZM519.33,77.28c0-13.54,10.99-24.51,24.52-24.51,13.54,0,24.51,10.99,24.51,24.52v.02c0,13.54-10.98,24.51-24.52,24.51-13.54,0-24.51-10.99-24.51-24.53v-.02ZM499.24,35.62h14.19v40.52h-14.19v-40.52ZM496.58,81.96l-4.82,7.23-4.82-7.23h9.64ZM452.45,106.8l7.23,4.82-7.23,4.82v-9.64ZM368.78,175.91h-16.42c-6.34-.01-11.48-5.15-11.5-11.5-.01-6.36,5.13-11.53,11.5-11.54h16.42c6.34.01,11.49,5.15,11.5,11.5.01,6.36-5.14,11.53-11.5,11.54ZM389.51,124.4h0c0-13.33,10.8-24.12,24.12-24.12s24.11,10.8,24.11,24.12v.02c0,13.31-10.8,24.11-24.11,24.1h0c-13.32,0-24.11-10.8-24.11-24.12ZM422.86,189.32h0c0,.67-.54,1.21-1.21,1.21s-1.21-.54-1.21-1.21.54-1.21,1.21-1.21,1.21.54,1.21,1.21ZM399.29,273.99c-.66,0-1.21-.54-1.21-1.21s.54-1.21,1.21-1.21,1.21.54,1.21,1.21-.54,1.21-1.21,1.21ZM399.29,212.89c-.66,0-1.21-.54-1.21-1.21s.54-1.21,1.21-1.21,1.21.54,1.21,1.21-.54,1.21-1.21,1.21ZM422.86,295.16c0,.67-.54,1.21-1.21,1.21s-1.21-.54-1.21-1.21.54-1.21,1.21-1.21,1.21.54,1.21,1.21h0ZM483.96,295.16c0,.67-.54,1.21-1.21,1.21s-1.21-.54-1.2-1.21h0c0-.67.54-1.21,1.21-1.21.67,0,1.21.54,1.21,1.21h0ZM498.02,242.25c0,25.3-20.52,45.81-45.82,45.81-25.31,0-45.81-20.52-45.81-45.83v-.02c0-25.3,20.52-45.81,45.83-45.81,25.3,0,45.81,20.52,45.81,45.82v.02ZM481.55,189.32h0c0-.67.54-1.21,1.21-1.21.67,0,1.21.54,1.21,1.21h0c0,.67-.54,1.21-1.21,1.21s-1.21-.54-1.2-1.21ZM506.33,272.79c0,.66-.54,1.21-1.21,1.21-.67,0-1.21-.54-1.21-1.21h0c0-.67.54-1.21,1.21-1.21s1.21.54,1.2,1.21h0ZM506.33,211.69c0,.66-.54,1.21-1.21,1.2-.67,0-1.21-.54-1.21-1.21h0c0-.67.54-1.21,1.21-1.21s1.21.54,1.2,1.21h0ZM520.8,198.16l-48.96-48.76c-12.78-12.73-12.83-33.4-.1-46.18,9.34-9.38,22.96-11.9,34.6-7.54,4.22,1.58,8.18,4.06,11.58,7.45l48.96,48.76.02.02c12.77,12.73,12.81,33.41.08,46.18s-33.41,12.81-46.18.07ZM585.6,398.36l2.15-8.55,6.26,7.21-8.41,1.35ZM575.08,214.1v-15.07h53.3v15.07h-53.3ZM626.71,445.7l2.15-8.55,6.26,7.21-8.41,1.35Z"/>
    <path class="cls-14" d="M617.22,126.16c0,13.54-10.98,24.51-24.51,24.51s-24.52-10.98-24.52-24.51v-.02c0-13.54,10.99-24.51,24.53-24.51,13.54,0,24.51,10.99,24.51,24.53Z"/>
    <path class="cls-14" d="M568.35,77.3v.02c0,13.54-10.98,24.51-24.52,24.51-13.54,0-24.51-10.99-24.51-24.53v-.02c0-13.54,10.99-24.51,24.52-24.51,13.54,0,24.51,10.99,24.51,24.52Z"/>
    <path class="cls-14" d="M566.98,198.09c-12.73,12.77-33.41,12.81-46.18.07l-48.96-48.76c-12.78-12.73-12.83-33.4-.1-46.18,9.34-9.38,22.96-11.9,34.6-7.54,4.22,1.58,8.18,4.06,11.58,7.45l48.96,48.76.02.02c12.77,12.73,12.81,33.41.08,46.18Z"/>
    <path class="cls-14" d="M498.02,242.23v.02c0,25.3-20.52,45.81-45.82,45.81-25.31,0-45.81-20.52-45.81-45.83v-.02c0-25.3,20.52-45.81,45.83-45.81,25.3,0,45.81,20.52,45.81,45.82Z"/>
    <path class="cls-14" d="M323.92,242.23v.02c0,30.37-24.62,54.98-54.99,54.97-30.37,0-54.98-24.62-54.97-54.99h0c0-30.38,24.62-54.99,54.99-54.99,30.37,0,54.98,24.62,54.98,54.99Z"/>
    <path class="cls-14" d="M380.28,164.37c.01,6.36-5.14,11.53-11.5,11.54h-16.42c-6.34-.01-11.48-5.15-11.5-11.5-.01-6.36,5.13-11.53,11.5-11.54h16.42c6.34.01,11.49,5.15,11.5,11.5Z"/>
    <path class="cls-14" d="M323.43,124.4h0c0,5.12-2.41,9.67-6.16,12.57-2.69,2.09-6.08,3.34-9.75,3.34-8.79,0-15.91-7.13-15.91-15.91h0c0-8.79,7.13-15.92,15.91-15.92.05,0,.1,0,.16,0,8.72.09,15.75,7.17,15.75,15.91Z"/>
    <path class="cls-14" d="M223.12,126.16v.02c0,25.3-20.52,45.81-45.82,45.81-25.31,0-45.81-20.52-45.81-45.82v-.02c0-25.31,20.52-45.81,45.83-45.81,25.3,0,45.81,20.52,45.81,45.83Z"/>
    <path class="cls-14" d="M437.74,124.4v.02c0,13.31-10.8,24.11-24.11,24.1h0c-13.32,0-24.11-10.8-24.11-24.12h0c0-13.33,10.8-24.12,24.12-24.12s24.11,10.8,24.11,24.12Z"/>
    <path class="cls-6" d="M308.72,92.86c0,.66-.54,1.21-1.21,1.21s-1.21-.54-1.21-1.21.54-1.21,1.21-1.21c.33,0,.64.14.85.35.22.22.35.52.35.86Z"/>
    <polygon class="cls-11" points="92.27 437.14 94.42 445.7 86.01 444.35 92.27 437.14"/>
    <polygon class="cls-11" points="133.38 389.81 135.54 398.36 127.12 397.02 133.38 389.81"/>
    <polygon class="cls-10" points="186.71 28.18 177.06 28.18 181.88 20.95 186.71 28.18"/>
    <polygon class="cls-27" points="188.03 242.23 195.27 237.41 195.27 247.06 188.03 242.23"/>
    <polygon class="cls-6" points="243.37 139.49 238.55 132.26 248.2 132.26 243.37 139.49"/>
    <polygon class="cls-6" points="248.2 120.06 238.55 120.06 243.37 112.83 248.2 120.06"/>
    <path class="cls-6" d="M400.49,272.79c0,.66-.54,1.21-1.21,1.21s-1.21-.54-1.21-1.21.54-1.21,1.21-1.21,1.21.54,1.21,1.21Z"/>
    <path class="cls-6" d="M400.49,211.68c0,.66-.54,1.21-1.21,1.21s-1.21-.54-1.21-1.21.54-1.21,1.21-1.21,1.21.54,1.21,1.21Z"/>
    <path class="cls-6" d="M421.65,188.11c.66,0,1.21.54,1.21,1.21h0c0,.67-.54,1.21-1.21,1.21s-1.21-.54-1.21-1.21.54-1.21,1.21-1.21Z"/>
    <path class="cls-6" d="M422.86,295.15h0c0,.67-.54,1.21-1.21,1.21s-1.21-.54-1.21-1.21.54-1.21,1.21-1.21,1.21.54,1.21,1.21Z"/>
    <polygon class="cls-17" points="459.68 111.62 452.45 116.44 452.45 106.8 459.68 111.62"/>
    <path class="cls-6" d="M482.75,190.52c-.66,0-1.21-.54-1.2-1.21h0c0-.67.54-1.21,1.21-1.21.67,0,1.21.54,1.21,1.21h0c0,.67-.54,1.21-1.21,1.21Z"/>
    <path class="cls-6" d="M483.96,295.15h0c0,.67-.54,1.21-1.21,1.21s-1.21-.54-1.2-1.21h0c0-.67.54-1.21,1.21-1.21.67,0,1.21.54,1.21,1.21Z"/>
    <polygon class="cls-16" points="491.75 89.19 486.93 81.96 496.58 81.96 491.75 89.19"/>
    <path class="cls-6" d="M506.33,211.68h0c0,.67-.54,1.21-1.21,1.21-.67,0-1.21-.54-1.21-1.21h0c0-.67.54-1.21,1.21-1.21s1.21.54,1.2,1.21Z"/>
    <path class="cls-6" d="M506.33,272.79h0c0,.67-.54,1.21-1.21,1.21-.67,0-1.21-.54-1.21-1.21h0c0-.67.54-1.21,1.21-1.21s1.21.54,1.2,1.21Z"/>
    <rect class="cls-12" x="500.38" y="35.62" width="12.3" height="40.52"/>
    <polygon class="cls-10" points="544.08 28.18 534.44 28.18 539.26 20.95 544.08 28.18"/>
    <path class="cls-6" d="M553.48,107.13c.89-.29,1.76-.61,2.61-.98l-2.61,2.66v-1.69Z"/>
    <polygon class="cls-12" points="553.73 121.27 560.96 126.09 553.73 130.91 553.73 121.27"/>
    <path class="cls-15" d="M564.41,112.67h-.63l1.3-1.32c-.23.44-.45.88-.67,1.32Z"/>
    <path class="cls-6" d="M558.53,49.6c-1.62-.86-3.31-1.57-5.05-2.13l7.91-8.05h7.15l-10,10.19Z"/>
    <path class="cls-6" d="M560.73,50.88l11.27-11.47h7.16l-14.33,14.59c-1.28-1.15-2.65-2.19-4.1-3.12Z"/>
    <path class="cls-6" d="M566.59,55.73l16.02-16.31h7.17l-19.97,20.33c-.96-1.42-2.04-2.77-3.22-4.01Z"/>
    <path class="cls-6" d="M571.15,61.9l19.69-20.04v7.29l-17.42,17.74c-.61-1.73-1.36-3.4-2.26-4.99Z"/>
    <path class="cls-6" d="M575.16,75.93c-.09-2.14-.41-4.27-.93-6.34l16.61-16.91v7.29l-15.68,15.96Z"/>
    <path class="cls-6" d="M572.91,89.04c1.23-3.05,1.97-6.26,2.2-9.54l15.73-16.01v7.29l-17.93,18.25Z"/>
    <polygon class="cls-6" points="590.84 81.6 560.32 112.67 553.48 112.67 553.48 112.33 590.84 74.3 590.84 81.6"/>
    <path class="cls-6" d="M588.16,95.14c-3.78.55-7.43,1.79-10.76,3.66l13.44-13.68v7.29l-2.68,2.73Z"/>
    <polygon class="cls-12" points="591.83 179.84 584.59 175.02 591.83 170.2 591.83 179.84"/>
    <polygon class="cls-11" points="587.76 389.81 594.01 397.02 585.6 398.36 587.76 389.81"/>
    <rect class="cls-16" x="575.08" y="199.04" width="53.3" height="15.07"/>
    <polygon class="cls-11" points="635.13 444.35 626.71 445.7 628.87 437.14 635.13 444.35"/>
    <path class="cls-12" d="M519.49,126.16c0,13.54-10.97,24.51-24.51,24.51s-24.51-10.98-24.51-24.51v-.02c0-13.54,10.99-24.51,24.52-24.51,13.54,0,24.51,10.99,24.51,24.53Z"/>
    <path class="cls-12" d="M568.35,175.02v.02c0,13.54-10.98,24.51-24.52,24.51-13.54,0-24.51-10.99-24.51-24.52v-.02c0-13.54,10.99-24.51,24.52-24.51,13.54,0,24.51,10.98,24.51,24.52Z"/>
    <path class="cls-44" d="M375.33.04l-18.69,21.3c-4.55.61-8.76,2.29-12.37,4.78-1.46,1-2.82,2.14-4.06,3.39-5.14,5.15-8.33,12.26-8.37,20.1l-11.97,13.65c-4.66-14.06-1.88-30.15,8.69-42L347.17.05l13.4.1,14.04-.1h.72Z"/>
    <path class="cls-1" d="M342.19,71.82l-9.33,10.63c-.28-.24-.56-.48-.84-.73-5.81-5.18-9.87-11.58-12.15-18.47l11.97-13.65c0,.05,0,.1,0,.15,0,6.86,2.41,13.16,6.43,18.1,1.01,1.25,2.12,2.4,3.33,3.46h0s0,0,0,.01c.19.17.38.33.57.49Z"/>
    <path class="cls-8" d="M458.85,1.02l-65.85,76.65c-.17.2-.35.4-.52.6-10.05,11.27-24.72,15.97-38.6,13.81l12.48-14.22c4.94-1.02,9.41-3.31,13.07-6.52,1.21-1.06,2.33-2.22,3.34-3.46v-.02c3.61-4.42,5.91-9.92,6.35-15.95L434.32.38l24.53.64Z"/>
    <line class="cls-21" x1="458.86" y1="1.01" x2="458.85" y2="1.02"/>
    <line class="cls-17" x1="340.21" y1="29.51" x2="340.21" y2="29.51"/>
    <line class="cls-17" x1="379.43" y1="71.33" x2="379.43" y2="71.33"/>
    <path class="cls-33" d="M366.36,77.85l-12.48,14.22c-7.52-1.17-14.82-4.37-21.03-9.62l9.33-10.63c4.97,4.14,11.37,6.63,18.34,6.63,2,0,3.95-.2,5.84-.59h0Z"/>
    <line class="cls-17" x1="380.77" y1="29.45" x2="380.77" y2="29.45"/>
    <line class="cls-21" x1="331.9" y1="49.55" x2="331.84" y2="49.61"/>
    <line class="cls-21" x1="319.87" y1="63.26" x2="319.84" y2="63.3"/>
    <line class="cls-17" x1="356.65" y1="21.34" x2="356.64" y2="21.34"/>
    <line class="cls-21" x1="332.86" y1="82.45" x2="332.86" y2="82.45"/>
    <path class="cls-33" d="M389.13,51.9c.05-.71.08-1.42.08-2.14,0-7.94-3.22-15.12-8.44-20.31h0c-.25-.25-.5-.5-.76-.73L405.16.04h0s29.16.34,29.16.34l-45.19,51.52Z"/>
    <line class="cls-17" x1="366.55" y1="77.64" x2="366.36" y2="77.85"/>
    <path class="cls-16" d="M241.7,104.92c-9.17-27.8-35.13-46.57-64.4-46.57v8.18"/>
    <path class="cls-16" d="M177.3,185.79v8.18c29.27,0,55.23-18.78,64.4-46.57"/>
    <path class="cls-16" d="M129.35,78.21l5.78,5.78"/>
    <path class="cls-16" d="M109.49,126.16h8.18"/>
    <path class="cls-16" d="M129.35,174.11l5.78-5.78"/>
    <path class="cls-16" d="M268.93,180.38v-6.87"/>
    <path class="cls-16" d="M258.19,181.32l-1.19-6.77"/>
    <path class="cls-16" d="M247.78,184.11l-2.35-6.46"/>
    <path class="cls-16" d="M238.01,188.67l-3.44-5.95"/>
    <g>
      <g id="_x3C_镜像重复_x3E_">
        <g class="cls-42">
          <path class="cls-16" d="M229.18,194.53l-4.42-5.26"/>
        </g>
      </g>
      <g id="_x3C_镜像重复_x3E_-2" data-name="_x3C_镜像重复_x3E_">
        <g class="cls-25">
          <path class="cls-16" d="M229.2,289.55l-4.42,5.27"/>
        </g>
      </g>
    </g>
    <path class="cls-16" d="M217.39,201.53c-2.35,2.97-4.44,6.15-6.24,9.49-10.52,19.48-10.52,42.95,0,62.43,1.81,3.34,3.89,6.52,6.24,9.49"/>
    <path class="cls-16" d="M238.01,295.8l-3.44,5.95"/>
    <path class="cls-16" d="M247.78,300.36l-2.35,6.46"/>
    <path class="cls-16" d="M258.19,303.15l-1.19,6.77"/>
    <path class="cls-16" d="M268.93,304.09v6.87"/>
    <path class="cls-16" d="M279.68,303.15l1.19,6.77"/>
    <path class="cls-16" d="M290.09,300.36l2.35,6.46"/>
    <path class="cls-16" d="M299.86,295.8l3.44,5.95"/>
    <path class="cls-16" d="M308.69,289.62l4.42,5.26"/>
    <path class="cls-16" d="M316.32,281.99l5.26,4.42"/>
    <path class="cls-16" d="M322.5,273.16l5.95,3.44"/>
    <path class="cls-16" d="M327.06,263.39l6.46,2.35"/>
    <path class="cls-16" d="M329.85,252.98l6.77,1.19"/>
    <path class="cls-16" d="M330.79,242.24h6.87"/>
    <path class="cls-16" d="M329.85,231.49l6.77-1.19"/>
    <path class="cls-16" d="M327.06,221.08l6.46-2.35"/>
    <path class="cls-16" d="M322.5,211.31l5.95-3.44"/>
    <path class="cls-16" d="M316.32,202.48l5.26-4.42"/>
    <path class="cls-16" d="M308.69,194.85l4.42-5.26"/>
    <path class="cls-16" d="M299.86,188.67l3.44-5.95"/>
    <path class="cls-16" d="M290.09,184.11l2.35-6.46"/>
    <path class="cls-16" d="M279.68,181.32l1.19-6.77"/>
    <path class="cls-16" d="M179.78,234.81h2.34v14.77h-2.76"/>
    <path class="cls-16" d="M323.58,301.42h47.75c2.66,0,4.82-2.16,4.82-4.82,0-.38-.04-.75-.13-1.12l-21.7-90.73c-.52-2.17-2.46-3.7-4.69-3.7h-8.36"/>
    <path class="cls-16" d="M397.71,124.4c0,8.79,7.12,15.91,15.91,15.91,8.79,0,15.91-7.12,15.91-15.91h0c0-8.79-7.12-15.92-15.91-15.92-8.79,0-15.91,7.12-15.91,15.91h0Z"/>
    <path class="cls-16" d="M307.68,108.49c-.11-1.46-.16-2.92-.16-4.38v-4.78"/>
    <path class="cls-16" d="M413.62,148.52v15.88h-33.32"/>
    <path class="cls-16" d="M317.27,136.98c6.15,9.46,14.83,17,25.05,21.77"/>
    <path class="cls-16" d="M452.2,163.19v-38.78h-14.47"/>
    <path class="cls-16" d="M452.21,300.55v7.76"/>
    <path class="cls-16" d="M510.52,242.24h7.76"/>
    <path class="cls-16" d="M452.21,183.92v-7.76"/>
    <path class="cls-16" d="M393.89,242.24h-7.76"/>
    <path class="cls-16" d="M406.41,171.32h6.17l-41.73,47.06c-1.57,1.77-2.16,4.16-1.59,6.43l21.93,87.63c.81,3.24,3.8,5.52,7.24,5.52h44.31"/>
    <path class="cls-16" d="M461.68,317.97h48.69c2.37,0,4.61-.96,6.12-2.61l11.99-13.11"/>
    <rect class="cls-12" x="575.08" y="199.04" width="53.3" height="15.07"/>
    <path class="cls-16" d="M605.55,214.1l-16.82,20.24"/>
    <path class="cls-16" d="M628.38,206.57h6.61v-57.33"/>
    <path class="cls-16" d="M625.84,126.16h9.15v9.33"/>
    <path class="cls-6" d="M336.64,201.05c0,.66-.54,1.21-1.21,1.21s-1.21-.54-1.21-1.21.54-1.21,1.21-1.21,1.21.54,1.21,1.21Z"/>
    <polygon class="cls-13" points="459.68 111.62 452.45 116.44 452.45 106.8 459.68 111.62"/>
    <path class="cls-16" d="M506.34,95.69v-19.51"/>
    <path class="cls-16" d="M513.44,41.66h30.41v5.58"/>
    <text class="cls-3" transform="translate(238.51 129.16)"><tspan x="0" y="0">TH</tspan><tspan class="cls-35" x="11.04" y="0">R</tspan><tspan class="cls-40" x="16.29" y="0">O</tspan><tspan x="22.2" y="0">T</tspan></text>
    <path class="cls-1" d="M405.16.03h0s-25.15,28.68-25.15,28.68c-1.03-.96-2.14-1.84-3.31-2.64-4.6-3.15-10.17-4.99-16.17-4.99-1.31,0-2.61.09-3.88.26L375.33.04h29.83Z"/>
    <g>
      <path class="cls-19" d="M383.53,65.05l-.16,1.65-.59,1.15v.02c-1.02,1.25-2.14,2.41-3.35,3.46l.82-1.44-.02-1.71-.36-1.69-.53-1.27-1.08-1.96-1.72-2.66-2.25-3.07-5.23-5.96-2.55-2.5-2.29-2.12-1.98-1.73-1.66-1.34-1.66,1.34-1.98,1.73-2.29,2.12-2.55,2.5-5.23,5.96-2.25,3.07-1.72,2.66-1.09,1.96-.54,1.27-.34,1.69-.05,1.71.23.78.5.65c-1.21-1.06-2.32-2.21-3.33-3.46l-.52-1.16-.12-1.65.3-2.32.35-1.45.52-1.69.81-2.07,1.24-2.59,1.73-3.16,2.11-3.52,2.28-3.53,2.2-3.18,1.98-2.62,1.69-1.97-2.04-2.05-2.62-2.21-1.25-.95-1.03-.73-1.48-.86-1.34-.57-1.2-.31-1.67.25c1.24-1.25,2.6-2.39,4.06-3.39l1.5-.58,1.14-.2,1.18-.07.77.12,1.31.27,1.79.45,2.05.59,3.88,1.48,1.51.82,1.16.86,1.16-.86,1.51-.82,3.88-1.48,2.06-.59,1.79-.45,1.31-.28.77-.12,1.2.07,1.07.19,1.38.54c1.17.8,2.28,1.68,3.31,2.64.26.24.52.48.76.73l-.62-.17h-.88s-1.22.3-1.22.3l-1.33.58-1.48.86-1.03.73-1.25.95-2.61,2.2-2.04,2.05,1.69,1.97,1.98,2.62,2.2,3.18,2.27,3.53,2.11,3.52,1.73,3.16,1.24,2.6.81,2.07.52,1.69.35,1.45.32,2.32Z"/>
      <path class="cls-9" d="M352.84,36.94l-1.69,1.97-1.98,2.62-2.2,3.18-2.28,3.53-2.11,3.52-1.73,3.16-1.24,2.59-.81,2.07-.52,1.69-.35,1.45-.3,2.32.12,1.65.52,1.16c-4.02-4.94-6.43-11.23-6.43-18.1,0-.05,0-.1,0-.15.04-7.85,3.23-14.95,8.37-20.1l1.67-.25,1.2.31,1.34.57,1.48.86,1.03.73,1.25.95,2.62,2.21,2.04,2.05Z"/>
      <path class="cls-9" d="M376.69,26.07l-1.38-.54-1.07-.19-1.2-.07-.77.12-1.31.28-1.79.45-2.06.59-3.88,1.48-1.51.82-1.16.86-1.16-.86-1.51-.82-3.88-1.48-2.05-.59-1.79-.45-1.31-.27-.77-.12-1.18.07-1.14.2-1.5.58c3.61-2.49,7.82-4.17,12.37-4.78,1.27-.17,2.56-.26,3.88-.26,6,0,11.57,1.84,16.17,4.99Z"/>
      <path class="cls-9" d="M389.21,49.76c0,.72-.03,1.43-.08,2.14-.45,6.02-2.75,11.53-6.34,15.95l.59-1.15.16-1.65-.32-2.32-.35-1.45-.52-1.69-.81-2.07-1.24-2.6-1.73-3.16-2.11-3.52-2.27-3.53-2.2-3.18-1.98-2.62-1.69-1.97,2.04-2.05,2.61-2.2,1.25-.95,1.03-.73,1.48-.86,1.33-.58,1.22-.3h.88s.62.18.62.18h0c5.21,5.2,8.44,12.38,8.44,20.32Z"/>
      <path class="cls-9" d="M380.25,69.88l-.82,1.44c-3.65,3.21-8.12,5.5-13.07,6.52h0c-1.89.39-3.84.59-5.84.59-6.97,0-13.37-2.49-18.34-6.63-.19-.16-.38-.32-.57-.49,0,0,0,0,0,0h0s-.5-.66-.5-.66l-.23-.78.05-1.71.34-1.69.54-1.27,1.09-1.96,1.72-2.66,2.25-3.07,5.23-5.96,2.55-2.5,2.29-2.12,1.98-1.73,1.66-1.34,1.66,1.34,1.98,1.73,2.29,2.12,2.55,2.5,5.23,5.96,2.25,3.07,1.72,2.66,1.08,1.96.53,1.27.36,1.69.02,1.71Z"/>
    </g>
    <path class="cls-16" d="M595.41,91.55v-51.05"/>
    <path class="cls-6" d="M601.31,91.19c0,.66-.54,1.21-1.21,1.21s-1.21-.54-1.21-1.21.54-1.21,1.21-1.21c.33,0,.64.14.85.35.22.22.35.52.35.86Z"/>
    <text class="cls-3" transform="translate(189.84 27.24)"><tspan x="0" y="0">SCAN</tspan></text>
    <text class="cls-3" transform="translate(508.3 27.34)"><tspan x="0" y="0">MODE</tspan></text>
    <text class="cls-4" transform="translate(336.04 111.3)"><tspan x="0" y="0">CAM</tspan></text>
    <text class="cls-4" transform="translate(382.08 112.13)"><tspan x="0" y="0">DAT</tspan></text>
    <text class="cls-3" transform="translate(444.64 320.9)"><tspan class="cls-38" x="0" y="0">R</tspan><tspan class="cls-18" x="5.24" y="0">CS</tspan></text>
    <text class="cls-3" transform="translate(158.24 240.53)"><tspan class="cls-26" x="0" y="0">P</tspan><tspan x="5.16" y="0">WR</tspan><tspan x="0" y="9.16">DIST</tspan></text>
    <text class="cls-4" transform="translate(506.34 38.16)"><tspan x="0" y="0">GRP</tspan><tspan x="0" y="22.9" xml:space="preserve">  </tspan><tspan class="cls-31" x="0" y="27.44">2</tspan></text>
    <text class="cls-3" transform="translate(467.71 89.19)"><tspan class="cls-41" x="0" y="0">T</tspan><tspan class="cls-36" x="4.48" y="0">G</tspan><tspan x="10.15" y="0">T</tspan></text>
    <text class="cls-3" transform="translate(627.25 145.17)"><tspan class="cls-23" x="0" y="0">E</tspan><tspan class="cls-18" x="4.51" y="0">XIT</tspan></text>
    <text class="cls-3" transform="translate(595.41 178.04)"><tspan class="cls-28" x="0" y="0">L</tspan><tspan x="3.96" y="0">OCK</tspan></text>
    <text class="cls-3" transform="translate(580.71 209.15)"><tspan x="0" y="0">F</tspan><tspan class="cls-20" x="4.26" y="0">L</tspan><tspan x="7.9" y="0" xml:space="preserve">T  CNTRL</tspan></text>
    <text class="cls-7" transform="translate(533.22 300.71) rotate(-48.43)"><tspan x="0" y="0">NO</tspan><tspan class="cls-32" x="10.07" y="0">V</tspan><tspan class="cls-39" x="14.05" y="0">A</tspan><tspan class="cls-34" x="18.49" y="0">CS REM</tspan><tspan class="cls-30" x="41.88" y="0">O</tspan><tspan class="cls-34" x="46.56" y="0">TE MAN</tspan><tspan class="cls-29" x="71.48" y="0">U</tspan><tspan x="76.03" y="0">AL</tspan><tspan x="11.63" y="7.25">PI</tspan><tspan class="cls-43" x="17.63" y="7.25">L</tspan><tspan class="cls-30" x="20.77" y="7.25">O</tspan><tspan class="cls-24" x="25.45" y="7.25">T </tspan><tspan class="cls-37" x="31.03" y="7.25">C</tspan><tspan x="35.02" y="7.25">ONT</tspan><tspan class="cls-22" x="48.86" y="7.25">R</tspan><tspan x="53.01" y="7.25">OLLER</tspan></text>
    <text class="cls-2" transform="translate(593.54 405.92) rotate(48.09)"><tspan x="0" y="0">GRIP HERE</tspan></text>
    <text class="cls-5" transform="translate(99.88 436.16) rotate(-48.1)"><tspan x="0" y="0">GRIP HERE</tspan></text>
  </g>
</svg>