<?xml version="1.0" encoding="UTF-8"?>
<svg id="_图层_2" data-name="图层_2" xmlns="http://www.w3.org/2000/svg" xmlns:xlink="http://www.w3.org/1999/xlink" viewBox="0 0 721.14 600">
  <defs>
    <style>
      .cls-1 {
        fill: #e0ab58;
      }

      .cls-2 {
        font-size: 7.63px;
      }

      .cls-2, .cls-3, .cls-4, .cls-5, .cls-6, .cls-7, .cls-8 {
        fill: #979797;
      }

      .cls-2, .cls-3, .cls-4, .cls-5, .cls-6, .cls-8 {
        font-family: MicrosoftYaHei-Bold, 'Microsoft YaHei';
        font-weight: 700;
      }

      .cls-9 {
        fill: #c44c4f;
      }

      .cls-3, .cls-4 {
        font-size: 7.63px;
      }

      .cls-10 {
        fill: #d6d4d5;
        stroke: #d6d4d5;
      }

      .cls-10, .cls-11 {
        stroke-width: .5px;
      }

      .cls-10, .cls-11, .cls-12, .cls-13 {
        stroke-miterlimit: 10;
      }

      .cls-14 {
        fill: #b23541;
      }

      .cls-15 {
        stroke: #b23541;
      }

      .cls-15, .cls-16, .cls-17, .cls-12, .cls-18 {
        fill: #f7f6fb;
      }

      .cls-15, .cls-16, .cls-17, .cls-19, .cls-20 {
        stroke-linecap: round;
        stroke-linejoin: round;
      }

      .cls-21 {
        letter-spacing: 0em;
      }

      .cls-11 {
        fill: #fff;
        stroke: #fff;
      }

      .cls-22 {
        letter-spacing: -.07em;
      }

      .cls-4 {
        glyph-orientation-vertical: 0deg;
        text-orientation: upright;
        writing-mode: tb;
      }

      .cls-16, .cls-12, .cls-19, .cls-13 {
        stroke: #979797;
      }

      .cls-23, .cls-19, .cls-13, .cls-20 {
        fill: none;
      }

      .cls-24 {
        letter-spacing: -.01em;
      }

      .cls-25 {
        letter-spacing: .02em;
      }

      .cls-26 {
        letter-spacing: 0em;
      }

      .cls-27 {
        clip-path: url(#clippath-1);
      }

      .cls-28 {
        letter-spacing: .02em;
      }

      .cls-29 {
        fill: #a9353f;
      }

      .cls-30 {
        letter-spacing: -.03em;
      }

      .cls-17 {
        stroke: #a9353f;
      }

      .cls-31 {
        letter-spacing: -.02em;
      }

      .cls-5 {
        font-size: 7.63px;
      }

      .cls-32 {
        letter-spacing: -.04em;
      }

      .cls-33 {
        letter-spacing: 0em;
      }

      .cls-34 {
        letter-spacing: -.06em;
      }

      .cls-6 {
        font-size: 38.16px;
      }

      .cls-35 {
        fill: #db654c;
      }

      .cls-36 {
        letter-spacing: 0em;
      }

      .cls-8 {
        font-size: 6.04px;
      }

      .cls-37 {
        letter-spacing: -.01em;
      }

      .cls-38 {
        letter-spacing: -.02em;
      }

      .cls-39 {
        letter-spacing: -.01em;
      }

      .cls-40 {
        letter-spacing: -.01em;
      }

      .cls-41 {
        letter-spacing: -.02em;
      }

      .cls-42 {
        letter-spacing: -.04em;
      }

      .cls-43 {
        letter-spacing: -.04em;
      }

      .cls-44 {
        clip-path: url(#clippath);
      }

      .cls-45 {
        letter-spacing: -.03em;
      }

      .cls-46 {
        fill: #4c5673;
      }

      .cls-20 {
        stroke: #646464;
      }
    </style>
    <clipPath id="clippath">
      <rect class="cls-23" x="224.26" y="302.65" width="5.42" height="6.26"/>
    </clipPath>
    <clipPath id="clippath-1">
      <rect class="cls-23" x="224.28" y="402.93" width="5.42" height="6.26"/>
    </clipPath>
  </defs>
  <g id="_图层_1-2" data-name="图层_1">
    <path class="cls-18" d="M720.45,478.69l-1.34-12.1-1.88-12.29-2.33-12.45-2.69-12.6-2.97-12.75-3.21-12.92-3.41-13.15-3.63-13.39-3.84-13.69-4.08-14.01-4.34-14.37-4.62-14.7-4.94-15.03-5.28-15.28-5.63-15.44-5.99-15.46-6.33-15.3-6.66-14.97-6.96-14.43-7.26-13.7-7.51-12.79-7.74-11.73-3.95-5.43-3.99-5.11-4.03-4.8-4.08-4.48-4.11-4.15-4.15-3.84-4.19-3.52-4.21-3.22-8.53-5.57-8.64-4.51-8.76-3.62-8.87-2.86-9.01-2.26-9.15-1.78-9.33-1.44-9.51-1.16-9.74-.95-10-.79-10.28-.65-10.59-.55-10.93-.45-2.91-.1-65.84,76.65c-.17.2-.35.4-.52.6-10.05,11.27-24.72,15.97-38.6,13.8-7.53-1.17-14.82-4.36-21.03-9.62-.28-.23-.56-.48-.84-.72-5.81-5.18-9.87-11.59-12.15-18.47-4.65-14.07-1.88-30.15,8.69-42l18.61-21.21h-.64s-13.64-.05-13.64-.05l-13.24.02-12.84.08-12.44.15-12.04.21-11.66.29-11.29.37-10.93.45-10.59.55-10.28.65-10,.79-9.74.95-9.51,1.16-9.33,1.44-9.15,1.78-9.01,2.26-8.87,2.86-8.76,3.62-8.64,4.51-8.52,5.57-4.22,3.22-4.18,3.52-4.15,3.84-4.12,4.15-4.08,4.48-4.03,4.8-3.99,5.11-3.95,5.43-7.74,11.73-7.51,12.79-7.25,13.7-6.97,14.43-6.66,14.97-6.33,15.3-5.99,15.46-5.62,15.44-5.29,15.28-4.94,15.03-4.62,14.7-4.34,14.37-4.08,14.01-3.84,13.69-3.63,13.39-3.41,13.15-3.21,12.92-2.97,12.75-2.69,12.6-2.32,12.45-1.89,12.29-1.34,12.1-.69,11.88.05,11.6.86,11.26,1.73,10.86,2.59,10.39,3.43,9.84,4.18,9.22,4.84,8.53,5.35,7.78,5.74,6.97,5.99,6.11,6.11,5.2,6.16,4.26,6.14,3.31,6.09,2.34,6.01,1.37,5.92.39,12.5-13.26,11.89-12.63,11.29-11.99,10.7-11.36,10.09-10.72,9.48-10.06,8.88-9.4,8.29-8.72,7.71-8.04,7.15-7.35,6.63-6.66,6.15-5.96,5.72-5.27,5.38-4.6,5.1-3.93,4.95-3.29,4.88-2.7,4.98-2.15,5.2-1.68,5.58-1.26,6.13-.91,6.82-.66,7.63-.45,8.57-.32,9.58-.23,10.64-.17,11.75-.14,12.87-.14,14.01-.13,15.14-.16,16.28-.16,17.41-.19,17.41.19,16.28.16,15.14.16,14.01.13,12.88.14,11.74.14,10.65.17,9.57.23,8.57.32,7.63.45,6.82.66,6.13.91,5.58,1.26,5.21,1.68,4.97,2.15,4.89,2.7,4.94,3.29,5.1,3.93,5.38,4.6,5.72,5.27,6.15,5.96,6.63,6.66,7.15,7.35,7.71,8.04,8.29,8.72,8.88,9.4,9.48,10.06,10.09,10.72,10.7,11.36,11.29,11.99,11.9,12.63,12.49,13.26,5.92-.39,6.01-1.37,6.09-2.34,6.14-3.31,6.16-4.26,6.11-5.2,5.99-6.11,5.74-6.97,5.35-7.78,4.84-8.53,4.18-9.22,3.43-9.84,2.6-10.39,1.72-10.86.86-11.26.05-11.6-.69-11.88ZM86.01,558.23l6.26-7.21,2.15,8.56-8.41-1.35ZM307.52,205.53c.33,0,.63.14.85.35.22.22.35.52.35.86,0,.66-.53,1.2-1.2,1.2s-1.21-.54-1.21-1.2.54-1.21,1.21-1.21ZM291.61,238.27c0-8.78,7.12-15.9,15.91-15.9h.16c8.71.08,15.75,7.17,15.75,15.91,0,2.56-.6,4.98-1.67,7.12-1.08,2.14-2.62,4-4.49,5.45-2.7,2.1-6.08,3.34-9.76,3.34-8.78,0-15.9-7.12-15.9-15.91h0ZM243.37,226.71l4.83,7.23h-9.65l4.82-7.23ZM248.2,246.14l-4.83,7.23-4.82-7.23h9.65ZM181.88,134.83l4.83,7.23h-9.65l4.82-7.23ZM127.13,510.89l6.25-7.2,2.16,8.55-8.41-1.35ZM195.27,360.94l-7.24-4.83,7.24-4.82v9.65ZM177.29,285.86c-25.3,0-45.81-20.52-45.81-45.82v-.02c0-25.3,20.52-45.81,45.83-45.81,25.3,0,45.81,20.52,45.81,45.83v.02c-.01,25.3-20.52,45.81-45.83,45.8ZM323.92,356.13c-.01,30.37-24.63,54.98-54.99,54.97-30.37,0-54.98-24.62-54.97-54.99h0c0-30.38,24.62-54.99,54.98-54.99,30.37.01,54.98,24.63,54.98,54.99v.02ZM617.22,240.04c0,13.54-10.98,24.51-24.52,24.51s-24.51-10.97-24.51-24.51v-.02c0-13.54,10.98-24.51,24.52-24.51,13.54.01,24.51,10.99,24.51,24.53ZM591.83,284.08v9.64l-7.23-4.82,7.23-4.82ZM560.32,226.55h-6.84v-.34l37.36-38.03v7.3l-30.52,31.07ZM565.07,225.22c-.23.44-.45.88-.66,1.33h-.63l1.29-1.33ZM560.96,239.97l-7.23,4.82v-9.64l7.23,4.82ZM553.48,222.69v-1.68c.89-.29,1.76-.61,2.61-.98l-2.61,2.66ZM575.11,193.38l15.73-16.01v7.29l-17.93,18.26c1.23-3.05,1.97-6.27,2.2-9.54ZM574.23,183.46l16.61-16.91v7.3l-15.68,15.96c-.09-2.14-.41-4.27-.93-6.35ZM590.84,199v7.29l-2.68,2.73c-3.78.56-7.42,1.79-10.76,3.66l13.44-13.68ZM590.84,163.04l-17.43,17.73c-.6-1.72-1.36-3.39-2.26-4.99l19.69-20.04v7.3ZM589.78,153.3l-19.96,20.32c-.97-1.42-2.05-2.76-3.23-4.01l16.02-16.31h7.17ZM579.16,153.3l-14.33,14.59c-1.28-1.16-2.65-2.2-4.1-3.13l11.26-11.46h7.17ZM561.39,153.3h7.14l-10,10.18c-1.62-.86-3.31-1.57-5.05-2.13l7.91-8.05ZM539.26,134.83l4.82,7.23h-9.64l4.82-7.23ZM519.33,191.16c0-13.54,10.98-24.51,24.52-24.51,13.54,0,24.51,10.99,24.51,24.53v.02c-.01,13.54-10.99,24.51-24.53,24.5-13.54,0-24.51-10.98-24.5-24.52v-.02ZM499.24,149.5h14.2v40.51h-14.2v-40.51ZM496.58,195.84l-4.82,7.23-4.83-7.23h9.65ZM452.45,220.68l7.23,4.82-7.23,4.82v-9.64ZM368.78,289.79h-16.42c-6.34-.01-11.48-5.15-11.5-11.49-.01-6.37,5.14-11.54,11.5-11.55h16.42c6.34.01,11.49,5.15,11.5,11.5.01,6.36-5.14,11.53-11.5,11.54ZM389.51,238.3v-.02h0c0-13.33,10.8-24.12,24.12-24.12s24.11,10.8,24.11,24.12v.02c-.01,13.31-10.8,24.1-24.12,24.1s-24.11-10.79-24.11-24.1ZM422.86,303.19h0c0,.68-.54,1.21-1.21,1.21s-1.2-.54-1.2-1.21.54-1.2,1.2-1.2,1.21.54,1.21,1.2ZM399.29,387.87c-.67,0-1.21-.54-1.21-1.2s.54-1.21,1.21-1.21,1.2.54,1.2,1.21-.54,1.2-1.2,1.2ZM399.29,326.77c-.67,0-1.21-.54-1.21-1.21s.54-1.21,1.21-1.21,1.2.55,1.2,1.21-.54,1.21-1.2,1.21ZM422.86,409.04c0,.66-.54,1.2-1.21,1.2s-1.2-.54-1.2-1.21.54-1.2,1.2-1.2,1.21.54,1.21,1.2h0ZM483.96,409.04c0,.66-.54,1.2-1.2,1.2s-1.21-.54-1.21-1.21.54-1.21,1.21-1.21c.67.01,1.2.55,1.2,1.21h0ZM498.02,356.13c0,25.3-20.52,45.81-45.82,45.81-25.31-.01-45.82-20.52-45.81-45.83h0c0-25.32,20.52-45.83,45.82-45.82,25.31,0,45.82,20.52,45.81,45.82v.02ZM481.55,303.19c0-.66.54-1.2,1.21-1.2s1.2.54,1.2,1.2h0c0,.68-.54,1.21-1.2,1.21s-1.21-.54-1.21-1.21ZM505.12,387.88c-.66-.01-1.2-.55-1.2-1.21h0c0-.67.54-1.21,1.21-1.21s1.2.54,1.2,1.21-.54,1.21-1.21,1.21ZM506.33,325.57c0,.66-.54,1.2-1.21,1.2s-1.2-.54-1.2-1.21.54-1.21,1.21-1.21,1.2.55,1.2,1.21h0ZM520.8,312.04l-48.96-48.76c-12.78-12.72-12.83-33.4-.1-46.18,9.34-9.38,22.96-11.9,34.6-7.54,4.22,1.57,8.18,4.06,11.58,7.44l48.96,48.76.03.02c12.77,12.73,12.8,33.41.07,46.19-12.73,12.77-33.41,12.8-46.18.07ZM585.6,512.24l2.16-8.55,6.25,7.2-8.41,1.35ZM575.08,327.98v-15.06h53.3v15.06h-53.3ZM626.72,559.58l2.15-8.56,6.26,7.21-8.41,1.35Z"/>
    <polygon class="cls-18" points="496.58 195.84 491.76 203.07 486.93 195.84 496.58 195.84"/>
    <rect class="cls-18" x="499.24" y="149.5" width="14.2" height="40.51"/>
    <path class="cls-12" d="M617.22,240.04c0,13.54-10.98,24.51-24.51,24.51s-24.52-10.98-24.52-24.51v-.02c0-13.54,10.99-24.51,24.53-24.51,13.54,0,24.51,10.99,24.51,24.53Z"/>
    <path class="cls-12" d="M568.36,191.18v.02c0,13.54-10.98,24.51-24.52,24.51-13.54,0-24.51-10.99-24.51-24.53v-.02c0-13.54,10.99-24.51,24.52-24.51,13.54,0,24.51,10.99,24.51,24.52Z"/>
    <path class="cls-12" d="M566.98,311.97c-12.73,12.77-33.41,12.81-46.18.07l-48.96-48.76c-12.78-12.73-12.83-33.4-.1-46.18,9.34-9.38,22.96-11.9,34.6-7.54,4.22,1.58,8.18,4.06,11.58,7.45l48.96,48.76.02.02c12.77,12.73,12.81,33.41.08,46.18Z"/>
    <path class="cls-12" d="M498.02,356.12v.02c0,25.3-20.52,45.81-45.82,45.81-25.31,0-45.81-20.52-45.81-45.83v-.02c0-25.3,20.52-45.81,45.83-45.81,25.3,0,45.81,20.52,45.81,45.82Z"/>
    <path class="cls-12" d="M323.92,356.12v.02c0,30.37-24.62,54.98-54.99,54.97-30.37,0-54.98-24.62-54.97-54.99h0c0-30.38,24.62-54.99,54.99-54.99,30.37,0,54.98,24.62,54.98,54.99Z"/>
    <path class="cls-12" d="M380.28,278.25c.01,6.36-5.14,11.53-11.5,11.54h-16.42c-6.34-.01-11.48-5.15-11.5-11.5-.01-6.36,5.13-11.53,11.5-11.54h16.42c6.34.01,11.49,5.15,11.5,11.5Z"/>
    <path class="cls-12" d="M323.43,238.28h0c0,5.12-2.41,9.67-6.16,12.57-2.69,2.09-6.08,3.34-9.75,3.34-8.79,0-15.91-7.13-15.91-15.91h0c0-8.79,7.13-15.92,15.91-15.92.05,0,.1,0,.16,0,8.72.09,15.75,7.17,15.75,15.91Z"/>
    <path class="cls-12" d="M223.12,240.04v.02c0,25.3-20.52,45.81-45.82,45.81-25.31,0-45.81-20.52-45.81-45.82v-.02c0-25.31,20.52-45.81,45.83-45.81,25.3,0,45.81,20.52,45.81,45.83Z"/>
    <path class="cls-12" d="M437.74,238.28v.02c0,13.31-10.8,24.11-24.11,24.1h0c-13.32,0-24.11-10.8-24.11-24.12h0c0-13.33,10.8-24.12,24.12-24.12s24.11,10.8,24.11,24.12Z"/>
    <path class="cls-7" d="M308.72,206.74c0,.66-.54,1.21-1.21,1.21s-1.21-.54-1.21-1.21.54-1.21,1.21-1.21c.33,0,.64.14.85.35.22.22.35.52.35.86Z"/>
    <polygon class="cls-15" points="92.27 551.02 94.42 559.58 86.01 558.23 92.27 551.02"/>
    <polygon class="cls-15" points="133.38 503.69 135.54 512.24 127.13 510.9 133.38 503.69"/>
    <polygon class="cls-14" points="186.71 142.07 177.06 142.07 181.88 134.83 186.71 142.07"/>
    <polygon class="cls-29" points="188.03 356.12 195.27 351.29 195.27 360.94 188.03 356.12"/>
    <polygon class="cls-7" points="243.37 253.38 238.55 246.14 248.2 246.14 243.37 253.38"/>
    <polygon class="cls-7" points="248.2 233.94 238.55 233.94 243.37 226.71 248.2 233.94"/>
    <path class="cls-7" d="M400.49,386.67c0,.66-.54,1.21-1.21,1.21s-1.21-.54-1.21-1.21.54-1.21,1.21-1.21,1.21.54,1.21,1.21Z"/>
    <path class="cls-7" d="M400.49,325.56c0,.66-.54,1.21-1.21,1.21s-1.21-.54-1.21-1.21.54-1.21,1.21-1.21,1.21.54,1.21,1.21Z"/>
    <path class="cls-7" d="M421.65,301.99c.66,0,1.21.54,1.21,1.21h0c0,.67-.54,1.21-1.21,1.21s-1.21-.54-1.21-1.21.54-1.21,1.21-1.21Z"/>
    <path class="cls-7" d="M422.86,409.03h0c0,.67-.54,1.21-1.21,1.21s-1.21-.54-1.21-1.21.54-1.21,1.21-1.21,1.21.54,1.21,1.21Z"/>
    <polygon class="cls-20" points="459.68 225.5 452.45 230.32 452.45 220.68 459.68 225.5"/>
    <path class="cls-7" d="M482.76,304.4c-.66,0-1.21-.54-1.2-1.21h0c0-.67.54-1.21,1.21-1.21.67,0,1.21.54,1.21,1.21h0c0,.67-.54,1.21-1.21,1.21Z"/>
    <path class="cls-7" d="M483.96,409.03h0c0,.67-.54,1.21-1.21,1.21s-1.21-.54-1.2-1.21h0c0-.67.54-1.21,1.21-1.21.67,0,1.21.54,1.21,1.21Z"/>
    <polygon class="cls-19" points="491.76 203.07 486.93 195.84 496.58 195.84 491.76 203.07"/>
    <path class="cls-7" d="M506.33,325.56h0c0,.67-.54,1.21-1.21,1.21-.67,0-1.21-.54-1.21-1.21h0c0-.67.54-1.21,1.21-1.21s1.21.54,1.2,1.21Z"/>
    <path class="cls-7" d="M506.33,386.67h0c0,.67-.54,1.21-1.21,1.21-.67,0-1.21-.54-1.21-1.21h0c0-.67.54-1.21,1.21-1.21s1.21.54,1.2,1.21Z"/>
    <rect class="cls-16" x="500.38" y="149.5" width="12.3" height="40.52"/>
    <polygon class="cls-14" points="544.08 142.07 534.44 142.07 539.26 134.83 544.08 142.07"/>
    <path class="cls-7" d="M553.48,221.01c.89-.29,1.76-.61,2.61-.98l-2.61,2.66v-1.69Z"/>
    <polygon class="cls-16" points="553.73 235.15 560.96 239.97 553.73 244.79 553.73 235.15"/>
    <path class="cls-18" d="M564.41,226.55h-.63l1.3-1.32c-.23.44-.45.88-.67,1.32Z"/>
    <path class="cls-7" d="M558.53,163.48c-1.62-.86-3.31-1.57-5.05-2.13l7.91-8.05h7.15l-10,10.19Z"/>
    <path class="cls-7" d="M560.73,164.76l11.27-11.47h7.16l-14.33,14.59c-1.28-1.15-2.65-2.19-4.1-3.12Z"/>
    <path class="cls-7" d="M566.59,169.61l16.02-16.31h7.17l-19.97,20.33c-.96-1.42-2.04-2.77-3.22-4.01Z"/>
    <path class="cls-7" d="M571.15,175.78l19.69-20.04v7.29l-17.42,17.74c-.61-1.73-1.36-3.4-2.26-4.99Z"/>
    <path class="cls-7" d="M575.16,189.81c-.09-2.14-.41-4.27-.93-6.34l16.61-16.91v7.29l-15.68,15.96Z"/>
    <path class="cls-7" d="M572.91,202.92c1.23-3.05,1.97-6.26,2.2-9.54l15.73-16.01v7.29l-17.93,18.25Z"/>
    <polygon class="cls-7" points="590.84 195.48 560.32 226.55 553.48 226.55 553.48 226.21 590.84 188.18 590.84 195.48"/>
    <path class="cls-7" d="M588.16,209.02c-3.78.55-7.43,1.79-10.76,3.66l13.44-13.68v7.29l-2.68,2.73Z"/>
    <polygon class="cls-16" points="591.83 293.72 584.6 288.9 591.83 284.08 591.83 293.72"/>
    <polygon class="cls-15" points="587.76 503.69 594.01 510.9 585.6 512.24 587.76 503.69"/>
    <rect class="cls-19" x="575.08" y="312.92" width="53.3" height="15.07"/>
    <polygon class="cls-15" points="635.13 558.23 626.71 559.58 628.87 551.02 635.13 558.23"/>
    <path class="cls-16" d="M519.49,240.04c0,13.54-10.97,24.51-24.51,24.51s-24.51-10.98-24.51-24.51v-.02c0-13.54,10.99-24.51,24.52-24.51,13.54,0,24.51,10.99,24.51,24.53Z"/>
    <path class="cls-16" d="M568.36,288.9v.02c0,13.54-10.98,24.51-24.52,24.51-13.54,0-24.51-10.99-24.51-24.52v-.02c0-13.54,10.99-24.51,24.52-24.51,13.54,0,24.51,10.98,24.51,24.52Z"/>
    <path class="cls-46" d="M375.33,113.92l-18.69,21.3c-4.55.61-8.76,2.29-12.37,4.78-1.46,1-2.82,2.14-4.06,3.39-5.14,5.15-8.33,12.26-8.37,20.1l-11.97,13.65c-4.66-14.06-1.88-30.15,8.69-42l18.61-21.21,13.4.1,14.04-.1h.72Z"/>
    <path class="cls-1" d="M342.19,185.7l-9.33,10.63c-.28-.24-.56-.48-.84-.73-5.81-5.18-9.87-11.58-12.15-18.47l11.97-13.65c0,.05,0,.1,0,.15,0,6.86,2.41,13.16,6.43,18.1,1.01,1.25,2.12,2.4,3.33,3.46h0s0,0,0,.01c.19.17.38.33.57.49Z"/>
    <path class="cls-9" d="M458.85,114.9l-65.85,76.65c-.17.2-.35.4-.52.6-10.05,11.27-24.72,15.97-38.6,13.81l12.48-14.22c4.94-1.02,9.41-3.31,13.07-6.52,1.21-1.06,2.33-2.22,3.34-3.46v-.02c3.61-4.42,5.91-9.92,6.35-15.95l45.19-51.52,24.53.64Z"/>
    <line class="cls-23" x1="458.86" y1="114.9" x2="458.85" y2="114.9"/>
    <path class="cls-35" d="M366.36,191.73l-12.48,14.22c-7.52-1.17-14.82-4.37-21.03-9.62l9.33-10.63c4.97,4.14,11.37,6.63,18.34,6.63,2,0,3.95-.2,5.84-.59h0Z"/>
    <line class="cls-23" x1="331.9" y1="163.43" x2="331.84" y2="163.49"/>
    <line class="cls-23" x1="319.87" y1="177.14" x2="319.84" y2="177.18"/>
    <line class="cls-23" x1="332.86" y1="196.33" x2="332.86" y2="196.34"/>
    <path class="cls-35" d="M389.13,165.78c.05-.71.08-1.42.08-2.14,0-7.94-3.22-15.12-8.44-20.31h0c-.25-.25-.5-.5-.76-.73l25.15-28.67h0s29.16.34,29.16.34l-45.19,51.52Z"/>
    <path class="cls-19" d="M241.7,218.8c-9.17-27.8-35.13-46.57-64.4-46.57v8.18"/>
    <path class="cls-19" d="M177.3,299.67v8.18c29.27,0,55.23-18.78,64.4-46.57"/>
    <path class="cls-19" d="M129.35,192.09l5.78,5.78"/>
    <path class="cls-19" d="M109.49,240.04h8.18"/>
    <path class="cls-19" d="M129.35,287.99l5.78-5.78"/>
    <path class="cls-19" d="M268.94,294.26v-6.87"/>
    <path class="cls-19" d="M258.19,295.2l-1.19-6.77"/>
    <path class="cls-19" d="M247.78,297.99l-2.35-6.46"/>
    <path class="cls-19" d="M238.01,302.55l-3.44-5.95"/>
    <g>
      <g id="_x3C_镜像重复_x3E_">
        <g class="cls-44">
          <path class="cls-19" d="M229.18,308.41l-4.42-5.26"/>
        </g>
      </g>
      <g id="_x3C_镜像重复_x3E_-2" data-name="_x3C_镜像重复_x3E_">
        <g class="cls-27">
          <path class="cls-19" d="M229.2,403.43l-4.42,5.27"/>
        </g>
      </g>
    </g>
    <path class="cls-19" d="M217.39,315.42c-2.35,2.97-4.44,6.15-6.24,9.49-10.52,19.48-10.52,42.95,0,62.43,1.81,3.34,3.89,6.52,6.24,9.49"/>
    <path class="cls-19" d="M238.01,409.68l-3.44,5.95"/>
    <path class="cls-19" d="M247.78,414.24l-2.35,6.46"/>
    <path class="cls-19" d="M258.19,417.03l-1.19,6.77"/>
    <path class="cls-19" d="M268.94,417.97v6.87"/>
    <path class="cls-19" d="M279.68,417.03l1.19,6.77"/>
    <path class="cls-19" d="M290.09,414.24l2.35,6.46"/>
    <path class="cls-19" d="M299.86,409.68l3.44,5.95"/>
    <path class="cls-19" d="M308.69,403.5l4.42,5.26"/>
    <path class="cls-19" d="M316.32,395.87l5.26,4.42"/>
    <path class="cls-19" d="M322.5,387.04l5.95,3.44"/>
    <path class="cls-19" d="M327.06,377.27l6.46,2.35"/>
    <path class="cls-19" d="M329.85,366.86l6.77,1.19"/>
    <path class="cls-19" d="M330.79,356.12h6.87"/>
    <path class="cls-19" d="M329.85,345.37l6.77-1.19"/>
    <path class="cls-19" d="M327.06,334.96l6.46-2.35"/>
    <path class="cls-19" d="M322.5,325.19l5.95-3.44"/>
    <path class="cls-19" d="M316.32,316.36l5.26-4.42"/>
    <path class="cls-19" d="M308.69,308.73l4.42-5.26"/>
    <path class="cls-19" d="M299.86,302.55l3.44-5.95"/>
    <path class="cls-19" d="M290.09,297.99l2.35-6.46"/>
    <path class="cls-19" d="M279.68,295.2l1.19-6.77"/>
    <path class="cls-19" d="M179.78,348.69h2.34v14.77h-2.76"/>
    <path class="cls-19" d="M323.58,415.3h47.75c2.66,0,4.82-2.16,4.82-4.82,0-.38-.04-.75-.13-1.12l-21.7-90.73c-.52-2.17-2.46-3.7-4.69-3.7h-8.36"/>
    <path class="cls-19" d="M397.71,238.28c0,8.79,7.12,15.91,15.91,15.91,8.79,0,15.91-7.12,15.91-15.91h0c0-8.79-7.12-15.92-15.91-15.92-8.79,0-15.91,7.12-15.91,15.91h0Z"/>
    <path class="cls-19" d="M307.68,222.37c-.11-1.46-.16-2.92-.16-4.38v-4.78"/>
    <path class="cls-19" d="M413.62,262.4v15.88h-33.32"/>
    <path class="cls-19" d="M317.27,250.86c6.15,9.46,14.83,17,25.05,21.77"/>
    <path class="cls-19" d="M452.21,277.07v-38.78h-14.47"/>
    <path class="cls-19" d="M452.21,414.44v7.76"/>
    <path class="cls-19" d="M510.53,356.12h7.76"/>
    <path class="cls-19" d="M452.21,297.8v-7.76"/>
    <path class="cls-19" d="M393.89,356.12h-7.76"/>
    <path class="cls-19" d="M406.41,285.21h6.17l-41.73,47.06c-1.57,1.77-2.16,4.16-1.59,6.43l21.93,87.63c.81,3.24,3.8,5.52,7.24,5.52h44.31"/>
    <path class="cls-19" d="M461.68,431.85h48.69c2.37,0,4.61-.96,6.12-2.61l11.99-13.11"/>
    <rect class="cls-16" x="575.08" y="312.92" width="53.3" height="15.07"/>
    <path class="cls-19" d="M605.55,327.98l-16.82,20.24"/>
    <path class="cls-19" d="M628.38,320.45h6.61v-57.33"/>
    <path class="cls-19" d="M625.84,240.04h9.15v9.33"/>
    <path class="cls-7" d="M336.64,314.93c0,.66-.54,1.21-1.21,1.21s-1.21-.54-1.21-1.21.54-1.21,1.21-1.21,1.21.54,1.21,1.21Z"/>
    <polygon class="cls-17" points="459.68 225.5 452.45 230.32 452.45 220.68 459.68 225.5"/>
    <path class="cls-19" d="M506.34,209.57v-19.51"/>
    <path class="cls-19" d="M513.44,155.54h30.41v5.58"/>
    <text class="cls-3" transform="translate(238.51 243.04)"><tspan x="0" y="0">TH</tspan><tspan class="cls-37" x="11.04" y="0">R</tspan><tspan class="cls-42" x="16.29" y="0">O</tspan><tspan x="22.2" y="0">T</tspan></text>
    <path class="cls-1" d="M405.16,113.92h0s-25.15,28.68-25.15,28.68c-1.03-.96-2.14-1.84-3.31-2.64-4.6-3.15-10.17-4.99-16.17-4.99-1.31,0-2.61.09-3.88.26l18.69-21.3h29.83Z"/>
    <g>
      <path class="cls-11" d="M383.53,178.93l-.16,1.65-.59,1.15v.02c-1.02,1.25-2.14,2.41-3.35,3.46l.82-1.44-.02-1.71-.36-1.69-.53-1.27-1.08-1.96-1.72-2.66-2.25-3.07-5.23-5.96-2.55-2.5-2.29-2.12-1.98-1.73-1.66-1.34-1.66,1.34-1.98,1.73-2.29,2.12-2.55,2.5-5.23,5.96-2.25,3.07-1.72,2.66-1.09,1.96-.54,1.27-.34,1.69-.05,1.71.23.78.5.65c-1.21-1.06-2.32-2.21-3.33-3.46l-.52-1.16-.12-1.65.3-2.32.35-1.45.52-1.69.81-2.07,1.24-2.59,1.73-3.16,2.11-3.52,2.28-3.53,2.2-3.18,1.98-2.62,1.69-1.97-2.04-2.05-2.62-2.21-1.25-.95-1.03-.73-1.48-.86-1.34-.57-1.2-.31-1.67.25c1.24-1.25,2.6-2.39,4.06-3.39l1.5-.58,1.14-.2,1.18-.07.77.12,1.31.27,1.79.45,2.05.59,3.88,1.48,1.51.82,1.16.86,1.16-.86,1.51-.82,3.88-1.48,2.06-.59,1.79-.45,1.31-.28.77-.12,1.2.07,1.07.19,1.38.54c1.17.8,2.28,1.68,3.31,2.64.26.24.52.48.76.73l-.62-.17h-.88s-1.22.3-1.22.3l-1.33.58-1.48.86-1.03.73-1.25.95-2.61,2.2-2.04,2.05,1.69,1.97,1.98,2.62,2.2,3.18,2.27,3.53,2.11,3.52,1.73,3.16,1.24,2.6.81,2.07.52,1.69.35,1.45.32,2.32Z"/>
      <path class="cls-10" d="M352.84,150.82l-1.69,1.97-1.98,2.62-2.2,3.18-2.28,3.53-2.11,3.52-1.73,3.16-1.24,2.59-.81,2.07-.52,1.69-.35,1.45-.3,2.32.12,1.65.52,1.16c-4.02-4.94-6.43-11.23-6.43-18.1,0-.05,0-.1,0-.15.04-7.85,3.23-14.95,8.37-20.1l1.67-.25,1.2.31,1.34.57,1.48.86,1.03.73,1.25.95,2.62,2.21,2.04,2.05Z"/>
      <path class="cls-10" d="M376.69,139.95l-1.38-.54-1.07-.19-1.2-.07-.77.12-1.31.28-1.79.45-2.06.59-3.88,1.48-1.51.82-1.16.86-1.16-.86-1.51-.82-3.88-1.48-2.05-.59-1.79-.45-1.31-.27-.77-.12-1.18.07-1.14.2-1.5.58c3.61-2.49,7.82-4.17,12.37-4.78,1.27-.17,2.56-.26,3.88-.26,6,0,11.57,1.84,16.17,4.99Z"/>
      <path class="cls-10" d="M389.21,163.64c0,.72-.03,1.43-.08,2.14-.45,6.02-2.75,11.53-6.34,15.95l.59-1.15.16-1.65-.32-2.32-.35-1.45-.52-1.69-.81-2.07-1.24-2.6-1.73-3.16-2.11-3.52-2.27-3.53-2.2-3.18-1.98-2.62-1.69-1.97,2.04-2.05,2.61-2.2,1.25-.95,1.03-.73,1.48-.86,1.33-.58,1.22-.3h.88s.62.18.62.18h0c5.21,5.2,8.44,12.38,8.44,20.32Z"/>
      <path class="cls-10" d="M380.25,183.76l-.82,1.44c-3.65,3.21-8.12,5.5-13.07,6.52h0c-1.89.39-3.84.59-5.84.59-6.97,0-13.37-2.49-18.34-6.63-.19-.16-.38-.32-.57-.49,0,0,0,0,0,0h0s-.5-.66-.5-.66l-.23-.78.05-1.71.34-1.69.54-1.27,1.09-1.96,1.72-2.66,2.25-3.07,5.23-5.96,2.55-2.5,2.29-2.12,1.98-1.73,1.66-1.34,1.66,1.34,1.98,1.73,2.29,2.12,2.55,2.5,5.23,5.96,2.25,3.07,1.72,2.66,1.08,1.96.53,1.27.36,1.69.02,1.71Z"/>
    </g>
    <path class="cls-19" d="M595.41,205.43v-51.05"/>
    <path class="cls-7" d="M601.31,205.07c0,.66-.54,1.21-1.21,1.21s-1.21-.54-1.21-1.21.54-1.21,1.21-1.21c.33,0,.64.14.85.35.22.22.35.52.35.86Z"/>
    <text class="cls-3" transform="translate(189.84 141.12)"><tspan x="0" y="0">SCAN</tspan></text>
    <text class="cls-3" transform="translate(508.3 141.22)"><tspan x="0" y="0">MODE</tspan></text>
    <text class="cls-4" transform="translate(336.04 225.18)"><tspan x="0" y="0">CAM</tspan></text>
    <text class="cls-4" transform="translate(382.08 226.01)"><tspan x="0" y="0">DAT</tspan></text>
    <text class="cls-3" transform="translate(444.64 434.78)"><tspan class="cls-40" x="0" y="0">R</tspan><tspan class="cls-21" x="5.24" y="0">CS</tspan></text>
    <text class="cls-3" transform="translate(158.24 354.41)"><tspan class="cls-28" x="0" y="0">P</tspan><tspan x="5.16" y="0">WR</tspan><tspan x="0" y="9.16">DIST</tspan></text>
    <text class="cls-4" transform="translate(506.34 152.04)"><tspan x="0" y="0">GRP</tspan><tspan x="0" y="22.9" xml:space="preserve">  </tspan><tspan class="cls-33" x="0" y="27.44">2</tspan></text>
    <text class="cls-3" transform="translate(467.72 203.07)"><tspan class="cls-43" x="0" y="0">T</tspan><tspan class="cls-38" x="4.48" y="0">G</tspan><tspan x="10.15" y="0">T</tspan></text>
    <text class="cls-3" transform="translate(627.25 259.05)"><tspan class="cls-25" x="0" y="0">E</tspan><tspan class="cls-21" x="4.51" y="0">XIT</tspan></text>
    <text class="cls-3" transform="translate(595.41 291.92)"><tspan class="cls-30" x="0" y="0">L</tspan><tspan x="3.96" y="0">OCK</tspan></text>
    <text class="cls-3" transform="translate(580.71 323.03)"><tspan x="0" y="0">F</tspan><tspan class="cls-22" x="4.26" y="0">L</tspan><tspan x="7.9" y="0" xml:space="preserve">T  CNTRL</tspan></text>
    <text class="cls-8" transform="translate(533.22 414.59) rotate(-48.43)"><tspan x="0" y="0">NO</tspan><tspan class="cls-34" x="10.07" y="0">V</tspan><tspan class="cls-41" x="14.05" y="0">A</tspan><tspan class="cls-36" x="18.49" y="0">CS REM</tspan><tspan class="cls-32" x="41.88" y="0">O</tspan><tspan class="cls-36" x="46.56" y="0">TE MAN</tspan><tspan class="cls-31" x="71.48" y="0">U</tspan><tspan x="76.03" y="0">AL</tspan><tspan x="11.63" y="7.25">PI</tspan><tspan class="cls-45" x="17.63" y="7.25">L</tspan><tspan class="cls-32" x="20.77" y="7.25">O</tspan><tspan class="cls-26" x="25.45" y="7.25">T </tspan><tspan class="cls-39" x="31.03" y="7.25">C</tspan><tspan x="35.02" y="7.25">ONT</tspan><tspan class="cls-24" x="48.86" y="7.25">R</tspan><tspan x="53.01" y="7.25">OLLER</tspan></text>
    <text class="cls-2" transform="translate(593.54 519.8) rotate(48.09)"><tspan x="0" y="0">GRIP HERE</tspan></text>
    <text class="cls-5" transform="translate(99.88 550.04) rotate(-48.1)"><tspan x="0" y="0">GRIP HERE</tspan></text>
    <g id="_图层_2-2" data-name="图层_2">
      <g>
        <path class="cls-13" d="M568.36,191.18v.02c0,13.54-10.98,24.51-24.52,24.51-13.54,0-24.51-10.99-24.51-24.53v-.02c0-13.54,10.99-24.51,24.52-24.51,13.54,0,24.51,10.99,24.51,24.52Z"/>
        <text class="cls-6" transform="translate(531.47 207.49)"><tspan x="0" y="0">Y</tspan></text>
      </g>
      <g>
        <path class="cls-19" d="M519.49,240.04c0,13.54-10.97,24.51-24.51,24.51s-24.51-10.98-24.51-24.51v-.02c0-13.54,10.99-24.51,24.52-24.51,13.54,0,24.51,10.99,24.51,24.53Z"/>
        <text class="cls-6" transform="translate(480.98 255.29)"><tspan x="0" y="0">X</tspan></text>
      </g>
      <g>
        <path class="cls-19" d="M568.36,288.9v.02c0,13.54-10.98,24.51-24.52,24.51-13.54,0-24.51-10.99-24.51-24.52v-.02c0-13.54,10.99-24.51,24.52-24.51,13.54,0,24.51,10.98,24.51,24.52Z"/>
        <text class="cls-6" transform="translate(529.81 302.82)"><tspan x="0" y="0">A</tspan></text>
      </g>
      <g>
        <path class="cls-13" d="M617.22,240.04c0,13.54-10.98,24.51-24.51,24.51s-24.52-10.98-24.52-24.51v-.02c0-13.54,10.99-24.51,24.53-24.51,13.54,0,24.51,10.99,24.51,24.53Z"/>
        <text class="cls-6" transform="translate(580.11 255.77)"><tspan x="0" y="0">B</tspan></text>
      </g>
      <path class="cls-18" d="M226.1,85.79h0l-12.39.02-11.8.67-11.17,1.31-10.55,1.95-9.93,2.58-9.35,3.17-8.95,3.55-8.71,4.04h0l3.69-13.81,3.97-14.89,4.38-15.68,5.09-15.72,2.96-7.5,3.32-7.04,3.73-6.42,4.17-5.69,4.61-4.88,5.03-4.04,5.38-3.19,5.62-2.32,5.7-1.43,5.57-.45,2.66.17,2.54.46,2.39.75,2.22,1.06,2.02,1.37,1.81,1.68,1.58,2,1.36,2.3,1.14,2.59.93,2.85,1.31,6.41.71,7.17.29,7.7-.02,16.25-.07,33.18h0l-1.27-.14Z"/>
      <g>
        <path class="cls-19" d="M287.74,304.44v103.64"/>
        <path class="cls-19" d="M249.74,304.3v103.64"/>
        <path class="cls-19" d="M217.04,337.06h103.32"/>
        <path class="cls-19" d="M320.53,375.91h-103.14"/>
        <path class="cls-19" d="M213.67,356.12c0,30.52,24.73,55.27,55.25,55.27,30.52,0,55.27-24.73,55.27-55.25h0c0-30.53-24.73-55.28-55.25-55.28-30.52,0-55.27,24.73-55.27,55.25h0Z"/>
      </g>
      <polygon class="cls-18" points="252.98 116.27 248.65 116.45 238.06 117 227.78 117.65 217.78 118.44 208.04 119.39 198.53 120.55 189.2 121.99 180.05 123.77 171.04 126.03 162.17 128.89 153.41 132.51 144.77 137.02 136.25 142.59 132.03 145.81 127.85 149.33 123.7 153.17 119.58 157.32 115.5 161.8 111.47 166.6 107.48 171.71 103.53 177.14 95.79 188.87 88.28 201.66 81.03 215.36 77.32 223.03 77.24 223.2 81.15 214.03 84.98 205.21 88.71 196.73 92.37 188.62 95.94 180.86 99.43 173.47 102.85 166.44 106.22 159.79 109.54 153.51 112.85 147.62 116.16 142.1 119.52 136.95 122.96 132.18 126.52 127.78 130.22 123.73 134.1 120.03 138.18 116.67 142.45 113.62 146.91 110.88 151.53 108.43 161.11 104.28 170.83 101.03 180.34 98.52 189.37 96.66 197.79 95.37 205.56 94.62 210.47 94.34 214.93 94.28 218.93 94.41 222.45 94.69 225.48 95.05 228.01 95.45 230.05 95.85 231.63 96.19 232.79 96.46 233.62 96.66 234.78 96.98 236.3 97.69 237.43 98.33 238.81 99.15 242.04 101.28 245.3 103.76 247.98 106.32 249.95 108.87 251.42 111.46 252.5 114.12 252.98 116.27"/>
      <g>
        <path class="cls-13" d="M380.28,278.25c.01,6.36-5.14,11.53-11.5,11.54h-16.42c-6.34-.01-11.48-5.15-11.5-11.5-.01-6.36,5.13-11.53,11.5-11.54h16.42c6.34.01,11.49,5.15,11.5,11.5Z"/>
        <path class="cls-19" d="M351.53,275.06v7.27h18.42v-7.27"/>
        <path class="cls-19" d="M363.16,274.57l-2.42-2.11-2.42,2.11"/>
        <path class="cls-19" d="M360.74,272.46v5.59"/>
      </g>
      <g>
        <g>
          <path class="cls-19" d="M305.5,237.51h10.12v7.67h-10.12v-7.67Z"/>
          <path class="cls-19" d="M302.2,239.36h-2.52v-7.67h10.12v1.79"/>
        </g>
        <path class="cls-13" d="M323.43,238.28h0c0,5.12-2.41,9.67-6.16,12.57-2.69,2.09-6.08,3.34-9.75,3.34-8.79,0-15.91-7.13-15.91-15.91h0c0-8.79,7.13-15.92,15.91-15.92.05,0,.1,0,.16,0,8.72.09,15.75,7.17,15.75,15.91Z"/>
      </g>
      <g>
        <path class="cls-19" d="M406.31,237.87h15.03"/>
        <path class="cls-19" d="M421.34,233.02h-15.03,15.03Z"/>
        <path class="cls-19" d="M406.31,242.71h15.03"/>
        <path class="cls-19" d="M397.71,238.28c0,8.79,7.12,15.91,15.91,15.91,8.79,0,15.91-7.12,15.91-15.91h0c0-8.79-7.12-15.92-15.91-15.92-8.79,0-15.91,7.12-15.91,15.91h0Z"/>
      </g>
      <path class="cls-18" d="M495.03,85.79h0l12.39.02,11.8.67,11.17,1.31,10.55,1.95,9.93,2.58,9.35,3.17,8.95,3.55,8.71,4.04h0l-3.69-13.81-3.97-14.89-4.38-15.68-5.09-15.72-2.96-7.5-3.32-7.04-3.73-6.42-4.17-5.69-4.61-4.88-5.03-4.04-5.38-3.19-5.62-2.32-5.7-1.43L514.65,0l-2.66.17-2.54.46-2.39.75-2.22,1.06-2.02,1.37-1.81,1.68-1.58,2-1.36,2.3-1.14,2.59-.93,2.85-1.31,6.41-.71,7.17-.29,7.7.02,16.25.07,33.18h0l1.27-.14Z"/>
      <polygon class="cls-18" points="468.36 116.27 472.69 116.45 483.28 117 493.56 117.65 503.56 118.44 513.3 119.39 522.81 120.55 532.14 121.99 541.29 123.77 550.3 126.03 559.17 128.89 567.93 132.51 576.57 137.02 585.09 142.59 589.31 145.81 593.49 149.33 597.64 153.17 601.76 157.32 605.84 161.8 609.87 166.6 613.86 171.71 617.81 177.14 625.55 188.87 633.06 201.66 640.31 215.36 644.02 223.03 644.1 223.2 640.19 214.03 636.36 205.21 632.63 196.73 628.97 188.62 625.4 180.86 621.91 173.47 618.49 166.44 615.12 159.79 611.8 153.51 608.49 147.62 605.18 142.1 601.82 136.95 598.38 132.18 594.82 127.78 591.12 123.73 587.24 120.03 583.16 116.67 578.89 113.62 574.43 110.88 569.81 108.43 560.23 104.28 550.51 101.03 541 98.52 531.97 96.66 523.55 95.37 515.78 94.62 510.87 94.34 506.41 94.28 502.41 94.41 498.89 94.69 495.86 95.05 493.33 95.45 491.29 95.85 489.71 96.19 488.55 96.46 487.72 96.66 486.56 96.98 485.04 97.69 483.91 98.33 482.53 99.15 479.3 101.28 476.04 103.76 473.36 106.32 471.39 108.87 469.92 111.46 468.84 114.12 468.36 116.27"/>
    </g>
  </g>
</svg>