<?xml version="1.0" encoding="UTF-8"?>
<svg id="_图层_2" data-name="图层_2" xmlns="http://www.w3.org/2000/svg" viewBox="0 0 57.86 57.86">
  <defs>
    <style>
      .cls-1 {
        fill: #f7f8f8;
        stroke: #f7f8f8;
      }

      .cls-1, .cls-2 {
        stroke-miterlimit: 10;
        stroke-width: .5px;
      }

      .cls-2 {
        fill: #979797;
        stroke: #fff;
      }
    </style>
  </defs>
  <g id="_图层_3" data-name="图层_3">
    <g>
      <path class="cls-2" d="M51.94,44.22l-.16,1.65-.59,1.15v.02c-1.02,1.25-2.14,2.41-3.35,3.46l.82-1.44-.02-1.71-.36-1.69-.53-1.27-1.08-1.96-1.72-2.66-2.25-3.07-5.23-5.96-2.55-2.5-2.29-2.12-1.98-1.73-1.66-1.34-1.66,1.34-1.98,1.73-2.29,2.12-2.55,2.5-5.23,5.96-2.25,3.07-1.72,2.66-1.09,1.96-.54,1.27-.34,1.69-.05,1.71.23.78.5.65c-1.21-1.06-2.32-2.21-3.33-3.46l-.52-1.16-.12-1.65.3-2.32.35-1.45.52-1.69.81-2.07,1.24-2.59,1.73-3.16,2.11-3.52,2.28-3.53,2.2-3.18,1.98-2.62,1.69-1.97-2.04-2.05-2.62-2.21-1.25-.95-1.03-.73-1.48-.86-1.34-.57-1.2-.31-1.67.25c1.24-1.25,2.6-2.39,4.06-3.39l1.5-.58,1.14-.2,1.18-.07.77.12,1.31.27,1.79.45,2.05.59,3.88,1.48,1.51.82,1.16.86,1.16-.86,1.51-.82,3.88-1.48,2.06-.59,1.79-.45,1.31-.28.77-.12,1.2.07,1.07.19,1.38.54c1.17.8,2.28,1.68,3.31,2.64.26.24.52.48.76.73l-.62-.17h-.88s-1.22.3-1.22.3l-1.33.58-1.48.86-1.03.73-1.25.95-2.61,2.2-2.04,2.05,1.69,1.97,1.98,2.62,2.2,3.18,2.27,3.53,2.11,3.52,1.73,3.16,1.24,2.6.81,2.07.52,1.69.35,1.45.32,2.32Z"/>
      <path class="cls-1" d="M21.25,16.11l-1.69,1.97-1.98,2.62-2.2,3.18-2.28,3.53-2.11,3.52-1.73,3.16-1.24,2.59-.81,2.07-.52,1.69-.35,1.45-.3,2.32.12,1.65.52,1.16C2.66,42.09.25,35.79.25,28.93c0-.05,0-.1,0-.15.04-7.85,3.23-14.95,8.37-20.1l1.67-.25,1.2.31,1.34.57,1.48.86,1.03.73,1.25.95,2.62,2.21,2.04,2.05Z"/>
      <path class="cls-1" d="M45.1,5.24l-1.38-.54-1.07-.19-1.2-.07-.77.12-1.31.28-1.79.45-2.06.59-3.88,1.48-1.51.82-1.16.86-1.16-.86-1.51-.82-3.88-1.48-2.05-.59-1.79-.45-1.31-.27-.77-.12-1.18.07-1.14.2-1.5.58c3.61-2.49,7.82-4.17,12.37-4.78,1.27-.17,2.56-.26,3.88-.26,6,0,11.57,1.84,16.17,4.99Z"/>
      <path class="cls-1" d="M57.61,28.93c0,.72-.03,1.43-.08,2.14-.45,6.02-2.75,11.53-6.34,15.95l.59-1.15.16-1.65-.32-2.32-.35-1.45-.52-1.69-.81-2.07-1.24-2.6-1.73-3.16-2.11-3.52-2.27-3.53-2.2-3.18-1.98-2.62-1.69-1.97,2.04-2.05,2.61-2.2,1.25-.95,1.03-.73,1.48-.86,1.33-.58,1.22-.3h.88s.62.18.62.18h0c5.21,5.2,8.44,12.38,8.44,20.32Z"/>
      <path class="cls-1" d="M48.66,49.05l-.82,1.44c-3.65,3.21-8.12,5.5-13.07,6.52h0c-1.89.39-3.84.59-5.84.59-6.97,0-13.37-2.49-18.34-6.63-.19-.16-.38-.32-.57-.49,0,0,0,0,0,0h0s-.5-.66-.5-.66l-.23-.78.05-1.71.34-1.69.54-1.27,1.09-1.96,1.72-2.66,2.25-3.07,5.23-5.96,2.55-2.5,2.29-2.12,1.98-1.73,1.66-1.34,1.66,1.34,1.98,1.73,2.29,2.12,2.55,2.5,5.23,5.96,2.25,3.07,1.72,2.66,1.08,1.96.53,1.27.36,1.69.02,1.71Z"/>
    </g>
  </g>
</svg>