<?xml version="1.0" encoding="UTF-8"?>
<svg id="_图层_2" data-name="图层_2" xmlns="http://www.w3.org/2000/svg" viewBox="0 0 70.72 70.72">
  <defs>
    <style>
      .cls-1 {
        stroke-linecap: round;
        stroke-linejoin: round;
      }

      .cls-1, .cls-2 {
        fill: #f7f6fb;
        stroke: #979797;
      }

      .cls-2 {
        stroke-miterlimit: 10;
      }
    </style>
  </defs>
  <g id="_图层_3" data-name="图层_3">
    <g>
      <path class="cls-2" d="M26.33,1.69c-2.98.79-5.8,1.97-8.41,3.48-2.64,1.53-5.06,3.39-7.2,5.54l1.75-1.38,2.1-1.07,1.57-1.75,1.79-1.33,2.05-.89,2.3-.48,1.98-1.29,2.07-.82,2.2-.33,2.36.13,2.24-.73,2.21-.26h.02c-3.12-.01-6.15.4-9.03,1.18ZM5.17,17.91c-1.5,2.61-2.68,5.42-3.48,8.4-.78,2.88-1.19,5.91-1.19,9.04h0s.02.01.02.01v-.03l.26-2.21.73-2.24-.13-2.35.33-2.21.82-2.07,1.28-1.98.49-2.3.88-2.05,1.34-1.78,1.75-1.58,1.07-2.1,1.38-1.75c-2.15,2.14-4.01,4.56-5.55,7.2Z"/>
      <path class="cls-2" d="M70.22,35.36c0,19.25-15.61,34.86-34.86,34.86-16.14,0-29.72-10.97-33.68-25.86-.77-2.87-1.18-5.89-1.18-9h.02l.26,2.19.73,2.24-.12,2.35.32,2.21.82,2.07,1.29,1.97.48,2.31.89,2.04,1.33,1.79,1.75,1.58,1.07,2.1,1.38,1.75,1.75,1.38,2.1,1.07,1.58,1.75,1.78,1.33,2.05.88,2.3.49,1.98,1.28,2.07.83,2.21.32,2.35-.12,2.24.72,2.21.26,2.22-.26,2.24-.72,2.35.12,2.21-.32,2.07-.83,1.97-1.28,2.31-.49,2.04-.88,1.79-1.33,1.58-1.76,2.1-1.06,1.75-1.39,1.38-1.74,1.07-2.1,1.75-1.58,1.33-1.79.88-2.04.49-2.31,1.28-1.98.83-2.07.32-2.2-.12-2.35.72-2.25.26-2.21-.26-2.21-.72-2.24.12-2.36-.32-2.2-.83-2.07-1.28-1.98-.49-2.3-.88-2.05-1.33-1.79-1.76-1.57-1.06-2.1-1.39-1.75.02-.02c6.33,6.3,10.24,15.03,10.24,24.67Z"/>
      <path class="cls-2" d="M59.98,10.69l-.02.02-1.74-1.38-2.1-1.07-1.58-1.75-1.79-1.34v-.02c2.66,1.53,5.08,3.39,7.23,5.54Z"/>
      <path class="cls-2" d="M52.76,5.15v.02s-2.05-.88-2.05-.88l-2.31-.49-1.98-1.28-2.07-.82v-.02c2.99.79,5.81,1.96,8.41,3.47Z"/>
      <path class="cls-2" d="M44.36,1.68v.02s-2.21-.33-2.21-.33l-2.35.13-2.25-.73-1.09-.13-.82-.1-.28-.03h0c3.11-.01,6.13.4,9,1.17Z"/>
      <path class="cls-1" d="M64.19,38.09c-.06.68-.15,1.37-.27,2.05-.3,1.81-.78,3.59-1.42,5.32-.24.65-.51,1.28-.79,1.91-.77,1.67-1.69,3.27-2.76,4.77-.4.56-.82,1.11-1.26,1.64-1.17,1.42-2.48,2.73-3.89,3.9-.54.44-1.08.86-1.65,1.26-1.49,1.07-3.09,1.99-4.77,2.75-.62.29-1.26.56-1.91.8-1.72.64-3.51,1.12-5.32,1.42-.68.12-1.36.21-2.05.27-1.83.18-3.68.18-5.51,0-.69-.06-1.37-.15-2.05-.27-1.82-.3-3.6-.78-5.33-1.42-.64-.24-1.28-.51-1.91-.79-1.67-.77-3.27-1.69-4.77-2.76-.56-.4-1.11-.82-1.64-1.26-1.42-1.17-2.72-2.48-3.9-3.89-.43-.54-.85-1.08-1.25-1.65-1.07-1.5-2-3.09-2.76-4.77-.29-.62-.55-1.26-.79-1.91-.65-1.72-1.12-3.51-1.43-5.32-.11-.68-.2-1.37-.27-2.05-.17-1.83-.17-3.68,0-5.51.07-.69.16-1.37.27-2.05.31-1.82.78-3.6,1.43-5.33.24-.64.5-1.28.79-1.91.76-1.67,1.69-3.27,2.75-4.77.4-.56.82-1.11,1.26-1.64,1.17-1.42,2.48-2.72,3.9-3.9.53-.44,1.08-.85,1.64-1.25,1.5-1.07,3.1-2,4.77-2.76.63-.29,1.27-.55,1.91-.79,1.73-.65,3.51-1.12,5.33-1.43.68-.11,1.36-.2,2.05-.27,1.83-.17,3.67-.17,5.51,0,.68.07,1.37.16,2.05.27,1.81.31,3.59.78,5.32,1.43.65.24,1.28.5,1.91.79,1.68.76,3.27,1.69,4.77,2.75.56.4,1.11.82,1.64,1.26,1.42,1.17,2.73,2.48,3.9,3.9.44.53.86,1.08,1.26,1.64,1.07,1.5,1.99,3.1,2.75,4.77.29.63.56,1.27.8,1.91.64,1.73,1.12,3.51,1.42,5.33.12.68.21,1.36.27,2.05.18,1.83.18,3.67,0,5.51Z"/>
      <path class="cls-1" d="M8.98,23.29c-.29.63-.55,1.27-.79,1.91l-.33-1.25,1.12-.66Z"/>
      <polygon class="cls-1" points="8.27 14.56 7.64 16.73 7.39 19.2 5.38 20.65 3.81 22.27 4.3 19.97 5.18 17.92 6.52 16.14 8.27 14.56"/>
      <polygon class="cls-1" points="7.86 23.95 5.92 25.34 4.17 26.98 3.77 24.53 3.81 22.27 5.38 20.65 7.39 19.2 7.47 21.59 7.86 23.95"/>
      <path class="cls-1" d="M8.19,25.2c-.65,1.73-1.12,3.51-1.43,5.33l-.91.92-.98-2.18-.7-2.29,1.75-1.64,1.94-1.39.33,1.25Z"/>
      <path class="cls-1" d="M6.76,30.53c-.11.68-.2,1.36-.27,2.05l-.64-1.13.91-.92Z"/>
      <polygon class="cls-1" points="4.17 26.98 2.6 28.9 1.51 30.88 1.38 28.53 1.71 26.32 2.53 24.25 3.81 22.27 3.77 24.53 4.17 26.98"/>
      <polygon class="cls-1" points="5.85 31.45 4.34 33.3 3.07 35.33 2.05 33.07 1.51 30.88 2.6 28.9 4.17 26.98 4.87 29.27 5.85 31.45"/>
      <path class="cls-1" d="M6.49,38.09l-.64,1.13-1.51-1.85-1.27-2.04,1.27-2.03,1.51-1.85.64,1.13c-.17,1.83-.17,3.68,0,5.51Z"/>
      <path class="cls-1" d="M6.76,40.14l-.91-.92.64-1.13c.07.68.16,1.37.27,2.05Z"/>
      <polygon class="cls-1" points="3.07 35.33 2.05 37.6 1.51 39.79 .78 37.55 .52 35.36 .52 35.33 .78 33.12 1.51 30.88 2.05 33.07 3.07 35.33"/>
      <polygon class="cls-1" points="5.85 39.22 4.87 41.39 4.17 43.69 2.6 41.76 1.51 39.79 2.05 37.6 3.07 35.33 4.34 37.37 5.85 39.22"/>
      <path class="cls-1" d="M8.19,45.46l-.33,1.26-1.94-1.4-1.75-1.63.7-2.3.98-2.17.91.92c.31,1.81.78,3.6,1.43,5.32Z"/>
      <path class="cls-1" d="M8.98,47.37l-1.12-.65.33-1.26c.24.65.5,1.29.79,1.91Z"/>
      <polygon class="cls-1" points="3.77 46.13 3.82 48.39 2.53 46.42 1.71 44.35 1.39 42.14 1.51 39.79 2.6 41.76 4.17 43.69 3.77 46.13"/>
      <polygon class="cls-1" points="7.86 46.72 7.47 49.08 7.39 51.47 5.38 50.02 3.82 48.39 3.77 46.13 4.17 43.69 5.92 45.32 7.86 46.72"/>
      <path class="cls-1" d="M11.75,53.44l-2.24-.84-2.12-1.13.08-2.39.39-2.36,1.12.65c.76,1.68,1.69,3.27,2.76,4.77v1.3Z"/>
      <path class="cls-1" d="M12.99,53.79l-1.24-.35v-1.3c.39.57.81,1.11,1.24,1.65Z"/>
      <polygon class="cls-1" points="8.27 56.11 6.52 54.53 5.19 52.74 4.3 50.7 3.82 48.39 5.38 50.02 7.39 51.47 7.64 53.94 8.27 56.11"/>
      <polygon class="cls-1" points="12.52 58.15 10.2 57.27 8.27 56.11 7.64 53.94 7.39 51.47 9.51 52.6 11.75 53.44 11.98 55.82 12.52 58.15"/>
      <path class="cls-1" d="M17.24,58.93l-2.38-.23-2.34-.55-.54-2.33-.23-2.38,1.24.35c1.18,1.41,2.48,2.72,3.9,3.89l.35,1.25Z"/>
      <path class="cls-1" d="M18.53,58.94h-1.29s-.35-1.26-.35-1.26c.53.44,1.08.86,1.64,1.26Z"/>
      <polygon class="cls-1" points="14.57 62.41 12.47 61.34 10.72 59.96 9.34 58.21 8.27 56.11 10.2 57.27 12.52 58.15 13.4 60.47 14.57 62.41"/>
      <polygon class="cls-1" points="19.21 63.28 16.74 63.03 14.57 62.41 13.4 60.47 12.52 58.15 14.86 58.7 17.24 58.93 18.08 61.17 19.21 63.28"/>
      <path class="cls-1" d="M23.96,62.81l-2.36.39-2.39.08-1.13-2.11-.84-2.24h1.29c1.5,1.08,3.1,2,4.77,2.77l.66,1.11Z"/>
      <path class="cls-1" d="M25.21,62.49l-1.25.32-.66-1.11c.63.28,1.27.55,1.91.79Z"/>
      <polygon class="cls-1" points="22.28 66.86 19.98 66.37 17.93 65.49 16.15 64.16 14.57 62.41 16.74 63.03 19.21 63.28 20.66 65.29 22.28 66.86"/>
      <polygon class="cls-1" points="26.99 66.51 24.54 66.9 22.28 66.86 20.66 65.29 19.21 63.28 21.6 63.2 23.96 62.81 25.35 64.76 26.99 66.51"/>
      <path class="cls-1" d="M31.46,64.82l-2.18.99-2.29.7-1.64-1.75-1.39-1.95,1.25-.32c1.73.64,3.51,1.12,5.33,1.42l.92.91Z"/>
      <path class="cls-1" d="M32.59,64.18l-1.13.64-.92-.91c.68.12,1.36.21,2.05.27Z"/>
      <polygon class="cls-1" points="30.89 69.17 28.54 69.29 26.33 68.97 24.26 68.14 22.28 66.86 24.54 66.9 26.99 66.51 28.91 68.07 30.89 69.17"/>
      <polygon class="cls-1" points="35.34 67.61 33.08 68.62 30.89 69.17 28.91 68.07 26.99 66.51 29.28 65.81 31.46 64.82 33.31 66.34 35.34 67.61"/>
      <path class="cls-1" d="M39.23,64.82l-1.85,1.52-2.04,1.27-2.03-1.27-1.85-1.52,1.13-.64c1.83.18,3.68.18,5.51,0l1.13.64Z"/>
      <path class="cls-1" d="M40.15,63.91l-.92.91-1.13-.64c.69-.06,1.37-.15,2.05-.27Z"/>
      <polygon class="cls-1" points="39.8 69.17 37.56 69.89 35.34 70.15 33.13 69.89 30.89 69.17 33.08 68.62 35.34 67.61 37.61 68.62 39.8 69.17"/>
      <polygon class="cls-1" points="43.7 66.51 41.77 68.07 39.8 69.17 37.61 68.62 35.34 67.61 37.38 66.34 39.23 64.82 41.4 65.81 43.7 66.51"/>
      <path class="cls-1" d="M46.73,62.81l-1.4,1.95-1.63,1.75-2.3-.7-2.17-.99.92-.91c1.81-.3,3.6-.78,5.32-1.42l1.26.32Z"/>
      <path class="cls-1" d="M47.38,61.69l-.65,1.12-1.26-.32c.65-.24,1.29-.51,1.91-.8Z"/>
      <polygon class="cls-1" points="48.4 66.86 46.43 68.14 44.36 68.97 42.15 69.29 39.8 69.17 41.77 68.07 43.7 66.51 46.14 66.9 48.4 66.86"/>
      <polygon class="cls-1" points="51.48 63.28 50.03 65.29 48.4 66.86 46.14 66.9 43.7 66.51 45.33 64.76 46.73 62.81 49.09 63.2 51.48 63.28"/>
      <path class="cls-1" d="M53.45,58.93l-.84,2.24-1.13,2.11-2.39-.08-2.36-.39.65-1.12c1.68-.76,3.28-1.68,4.77-2.75h1.3Z"/>
      <path class="cls-1" d="M53.8,57.68l-.35,1.25h-1.3c.57-.39,1.11-.81,1.65-1.25Z"/>
      <polygon class="cls-1" points="56.12 62.4 54.54 64.16 52.75 65.49 50.71 66.37 48.4 66.86 50.03 65.29 51.48 63.28 53.95 63.03 56.12 62.4"/>
      <polygon class="cls-1" points="58.16 58.15 57.28 60.47 56.12 62.4 53.95 63.03 51.48 63.28 52.61 61.17 53.45 58.93 55.83 58.69 58.16 58.15"/>
      <path class="cls-1" d="M58.94,53.44l-.23,2.38-.55,2.33-2.33.54-2.38.24.35-1.25c1.41-1.17,2.72-2.48,3.89-3.9l1.25-.34Z"/>
      <path class="cls-1" d="M58.95,52.14v1.3s-1.26.34-1.26.34c.44-.53.86-1.08,1.26-1.64Z"/>
      <polygon class="cls-1" points="62.42 56.11 61.35 58.21 59.97 59.95 58.22 61.34 56.12 62.4 57.28 60.47 58.16 58.15 60.48 57.27 62.42 56.11"/>
      <polygon class="cls-1" points="63.29 51.47 63.04 53.94 62.42 56.11 60.48 57.27 58.16 58.15 58.71 55.82 58.94 53.44 61.18 52.59 63.29 51.47"/>
      <path class="cls-1" d="M63.29,51.47l-2.11,1.12-2.24.85v-1.3c1.08-1.5,2-3.1,2.77-4.77l1.11-.66.39,2.36.08,2.4Z"/>
      <path class="cls-1" d="M62.82,46.71l-1.11.66c.28-.63.55-1.26.79-1.91l.32,1.25Z"/>
      <polygon class="cls-1" points="66.87 48.39 66.38 50.7 65.5 52.74 64.17 54.53 62.42 56.11 63.04 53.94 63.29 51.47 65.31 50.02 66.87 48.39"/>
      <polygon class="cls-1" points="66.91 46.13 66.87 48.39 65.31 50.02 63.29 51.47 63.21 49.07 62.82 46.71 64.77 45.32 66.52 43.68 66.91 46.13"/>
      <path class="cls-1" d="M66.52,43.68l-1.75,1.64-1.95,1.39-.32-1.25c.64-1.73,1.12-3.51,1.42-5.32l.91-.93.99,2.18.7,2.29Z"/>
      <path class="cls-1" d="M64.83,39.21l-.91.93c.12-.68.21-1.37.27-2.05l.64,1.12Z"/>
      <polygon class="cls-1" points="69.3 42.14 68.98 44.34 68.15 46.41 66.87 48.39 66.91 46.13 66.52 43.68 68.08 41.76 69.18 39.79 69.3 42.14"/>
      <polygon class="cls-1" points="69.18 39.79 68.08 41.76 66.52 43.68 65.82 41.39 64.83 39.21 66.35 37.36 67.62 35.33 68.63 37.59 69.18 39.79"/>
      <path class="cls-1" d="M67.62,35.33l-1.27,2.03-1.52,1.85-.64-1.12c.18-1.84.18-3.68,0-5.51l.64-1.13,1.52,1.85,1.27,2.03Z"/>
      <path class="cls-1" d="M64.83,31.45l-.64,1.13c-.06-.69-.15-1.37-.27-2.05l.91.92Z"/>
      <polygon class="cls-1" points="70.16 35.33 69.9 37.54 69.18 39.79 68.63 37.59 67.62 35.33 68.63 33.07 69.18 30.88 69.9 33.12 70.16 35.33"/>
      <polygon class="cls-1" points="69.18 30.88 68.63 33.07 67.62 35.33 66.35 33.3 64.83 31.45 65.82 29.27 66.52 26.98 68.08 28.9 69.18 30.88"/>
      <path class="cls-1" d="M66.52,26.98l-.7,2.29-.99,2.18-.91-.92c-.3-1.82-.78-3.6-1.42-5.33l.32-1.25,1.95,1.39,1.75,1.64Z"/>
      <path class="cls-1" d="M62.82,23.95l-.32,1.25c-.24-.64-.51-1.28-.8-1.91h.01l1.11.66Z"/>
      <polygon class="cls-1" points="69.3 28.52 69.18 30.88 68.08 28.9 66.52 26.98 66.91 24.53 66.87 22.27 68.15 24.25 68.98 26.32 69.3 28.52"/>
      <polygon class="cls-1" points="66.91 24.53 66.52 26.98 64.77 25.34 62.82 23.95 63.21 21.59 63.29 19.19 65.3 20.64 66.87 22.27 66.91 24.53"/>
      <path class="cls-1" d="M63.29,19.19l-.08,2.4-.39,2.36-1.11-.66h-.01c-.76-1.67-1.68-3.27-2.75-4.77v-1.3s2.23.85,2.23.85l2.11,1.12Z"/>
      <path class="cls-1" d="M58.95,18.52c-.4-.56-.82-1.11-1.26-1.64l1.25.34v1.3Z"/>
      <polygon class="cls-1" points="66.87 22.27 65.3 20.64 63.29 19.19 63.04 16.73 62.41 14.56 64.17 16.13 65.5 17.92 66.38 19.97 66.87 22.27"/>
      <polygon class="cls-1" points="63.29 19.19 61.18 18.07 58.94 17.22 58.7 14.84 58.16 12.51 60.48 13.39 62.41 14.56 63.04 16.73 63.29 19.19"/>
      <path class="cls-1" d="M58.94,17.22l-1.25-.34c-1.17-1.42-2.48-2.73-3.9-3.9l-.34-1.25,2.38.24,2.33.54.54,2.33.24,2.38Z"/>
      <path class="cls-1" d="M53.79,12.98c-.53-.44-1.08-.86-1.64-1.26h1.3s.34,1.26.34,1.26Z"/>
      <polygon class="cls-1" points="62.41 14.56 60.48 13.39 58.16 12.51 57.28 10.19 56.12 8.26 58.22 9.33 59.96 10.71 61.35 12.46 62.41 14.56"/>
      <polygon class="cls-1" points="58.16 12.51 55.83 11.97 53.45 11.73 52.6 9.5 51.48 7.38 53.95 7.63 56.12 8.26 57.28 10.19 58.16 12.51"/>
      <path class="cls-1" d="M53.45,11.73h-1.3c-1.5-1.07-3.09-2-4.77-2.76l-.66-1.12,2.36-.39,2.4-.08,1.12,2.12.85,2.23Z"/>
      <path class="cls-1" d="M47.38,8.97c-.63-.29-1.26-.55-1.91-.79l1.25-.33.66,1.12Z"/>
      <path class="cls-1" d="M40.15,6.75c-.68-.11-1.37-.2-2.05-.27l1.12-.64.93.91Z"/>
      <path class="cls-1" d="M46.72,7.85l-1.25.33c-1.73-.65-3.51-1.12-5.32-1.43l-.93-.91,2.18-.98,2.29-.7,1.64,1.75,1.39,1.94Z"/>
      <polygon class="cls-1" points="51.48 7.38 49.08 7.46 46.72 7.85 45.33 5.91 43.69 4.16 46.14 3.76 48.4 3.8 50.03 5.37 51.48 7.38"/>
      <polygon class="cls-1" points="56.12 8.26 53.95 7.63 51.48 7.38 50.03 5.37 48.4 3.8 50.71 4.29 52.75 5.17 54.54 6.51 56.12 8.26"/>
      <path class="cls-1" d="M32.59,6.48c-.69.07-1.37.16-2.05.27l.92-.91,1.13.64Z"/>
      <path class="cls-1" d="M39.22,5.84l-1.12.64c-1.84-.17-3.68-.17-5.51,0l-1.13-.64,1.85-1.51,2.03-1.27,2.03,1.27,1.85,1.51Z"/>
      <polygon class="cls-1" points="43.69 4.16 41.4 4.86 39.22 5.84 37.37 4.33 35.34 3.06 37.6 2.04 39.8 1.5 41.77 2.59 43.69 4.16"/>
      <polygon class="cls-1" points="48.4 3.8 46.14 3.76 43.69 4.16 41.77 2.59 39.8 1.5 42.15 1.37 44.35 1.7 46.42 2.52 48.4 3.8"/>
      <polygon class="cls-1" points="39.8 1.5 37.6 2.04 35.34 3.06 33.08 2.04 30.89 1.5 33.13 .77 35.34 .51 35.36 .51 35.64 .54 36.46 .64 37.55 .77 39.8 1.5"/>
      <polygon class="cls-1" points="35.34 3.06 33.31 4.33 31.46 5.84 29.28 4.86 26.99 4.16 28.91 2.59 30.89 1.5 33.08 2.04 35.34 3.06"/>
      <path class="cls-1" d="M31.46,5.84l-.92.91c-1.82.31-3.6.78-5.33,1.43l-1.25-.33,1.39-1.94,1.64-1.75,2.29.7,2.18.98Z"/>
      <path class="cls-1" d="M25.21,8.18c-.64.24-1.28.5-1.91.79l.66-1.12,1.25.33Z"/>
      <path class="cls-1" d="M12.99,16.88c-.44.53-.86,1.08-1.26,1.64v-1.29s1.26-.35,1.26-.35Z"/>
      <path class="cls-1" d="M11.74,17.23v1.29c-1.07,1.5-2,3.1-2.76,4.77l-1.12.66-.39-2.36-.08-2.39,2.12-1.13,2.23-.84Z"/>
      <polygon class="cls-1" points="12.52 12.51 11.98 14.85 11.74 17.23 9.51 18.07 7.39 19.2 7.64 16.73 8.27 14.56 10.2 13.39 12.52 12.51"/>
      <polygon class="cls-1" points="14.57 8.26 13.4 10.19 12.52 12.51 10.2 13.39 8.27 14.56 9.34 12.46 10.72 10.71 12.47 9.33 14.57 8.26"/>
      <polygon class="cls-1" points="22.28 3.81 20.65 5.37 19.2 7.38 16.74 7.63 14.57 8.26 16.14 6.51 17.93 5.18 19.98 4.29 22.28 3.81"/>
      <polygon class="cls-1" points="19.2 7.38 18.08 9.5 17.23 11.74 14.85 11.97 12.52 12.51 13.4 10.19 14.57 8.26 16.74 7.63 19.2 7.38"/>
      <path class="cls-1" d="M17.23,11.74l-.34,1.24c-1.42,1.18-2.73,2.48-3.9,3.9l-1.25.35.24-2.38.54-2.34,2.33-.54,2.38-.23Z"/>
      <path class="cls-1" d="M18.53,11.73c-.56.4-1.11.81-1.64,1.25l.34-1.24h1.3Z"/>
      <path class="cls-1" d="M23.96,7.85l-.66,1.12c-1.67.76-3.27,1.69-4.77,2.76h-1.3s.85-2.23.85-2.23l1.12-2.12,2.4.08,2.36.39Z"/>
      <polygon class="cls-1" points="26.99 4.16 25.35 5.91 23.96 7.85 21.6 7.46 19.2 7.38 20.65 5.37 22.28 3.81 24.54 3.76 26.99 4.16"/>
      <polygon class="cls-1" points="30.89 1.5 28.91 2.59 26.99 4.16 24.54 3.76 22.28 3.81 24.26 2.52 26.33 1.7 28.53 1.37 30.89 1.5"/>
    </g>
  </g>
</svg>