<?xml version="1.0" encoding="UTF-8"?>
<svg id="_图层_2" data-name="图层_2" xmlns="http://www.w3.org/2000/svg" viewBox="0 0 71.24 71.24">
  <defs>
    <style>
      .cls-1 {
        stroke-miterlimit: 10;
      }

      .cls-1, .cls-2 {
        fill: #979797;
        stroke: #f7f6fb;
      }

      .cls-2 {
        stroke-linecap: round;
        stroke-linejoin: round;
      }
    </style>
  </defs>
  <g id="_图层_3" data-name="图层_3">
    <g>
      <path class="cls-1" d="M26.52,1.7c-3,.8-5.84,1.98-8.47,3.51-2.66,1.54-5.1,3.42-7.25,5.58l1.76-1.39,2.12-1.08,1.58-1.76,1.8-1.34,2.07-.9,2.32-.48,1.99-1.3,2.09-.83,2.22-.33,2.38.13,2.26-.74,2.23-.26h.02c-3.14-.01-6.2.4-9.1,1.19ZM5.2,18.04c-1.51,2.63-2.7,5.46-3.51,8.46-.79,2.9-1.2,5.95-1.2,9.11h0s.02.01.02.01v-.03l.26-2.23.74-2.26-.13-2.37.33-2.23.83-2.09,1.29-1.99.49-2.32.89-2.07,1.35-1.79,1.76-1.59,1.08-2.12,1.39-1.76c-2.17,2.16-4.04,4.59-5.59,7.25Z"/>
      <path class="cls-1" d="M70.74,35.62c0,19.39-15.73,35.12-35.12,35.12-16.26,0-29.94-11.05-33.93-26.05-.78-2.89-1.19-5.93-1.19-9.07h.02l.26,2.21.74,2.26-.12,2.37.32,2.23.83,2.09,1.3,1.98.48,2.33.9,2.06,1.34,1.8,1.76,1.59,1.08,2.12,1.39,1.76,1.76,1.39,2.12,1.08,1.59,1.76,1.79,1.34,2.07.89,2.32.49,1.99,1.29,2.09.84,2.23.32,2.37-.12,2.26.73,2.23.26,2.24-.26,2.26-.73,2.37.12,2.23-.32,2.09-.84,1.98-1.29,2.33-.49,2.06-.89,1.8-1.34,1.59-1.77,2.12-1.07,1.76-1.4,1.39-1.75,1.08-2.12,1.76-1.59,1.34-1.8.89-2.06.49-2.33,1.29-1.99.84-2.09.32-2.22-.12-2.37.73-2.27.26-2.23-.26-2.23-.73-2.26.12-2.38-.32-2.22-.84-2.09-1.29-1.99-.49-2.32-.89-2.07-1.34-1.8-1.77-1.58-1.07-2.12-1.4-1.76.02-.02c6.38,6.35,10.32,15.14,10.32,24.85Z"/>
      <path class="cls-1" d="M60.42,10.77l-.02.02-1.75-1.39-2.12-1.08-1.59-1.76-1.8-1.35v-.02c2.68,1.54,5.12,3.42,7.28,5.58Z"/>
      <path class="cls-1" d="M53.15,5.18v.02s-2.07-.89-2.07-.89l-2.33-.49-1.99-1.29-2.09-.83v-.02c3.01.8,5.85,1.97,8.47,3.5Z"/>
      <path class="cls-1" d="M44.69,1.69v.02s-2.23-.33-2.23-.33l-2.37.13-2.27-.74-1.1-.13-.83-.1-.28-.03h0c3.13-.01,6.18.4,9.07,1.18Z"/>
      <path class="cls-2" d="M64.66,38.37c-.06.69-.15,1.38-.27,2.07-.3,1.82-.79,3.62-1.43,5.36-.24.65-.51,1.29-.8,1.92-.78,1.68-1.7,3.29-2.78,4.81-.4.56-.83,1.12-1.27,1.65-1.18,1.43-2.5,2.75-3.92,3.93-.54.44-1.09.87-1.66,1.27-1.5,1.08-3.11,2-4.81,2.77-.62.29-1.27.56-1.92.81-1.73.64-3.54,1.13-5.36,1.43-.69.12-1.37.21-2.07.27-1.84.18-3.71.18-5.55,0-.7-.06-1.38-.15-2.07-.27-1.83-.3-3.63-.79-5.37-1.43-.64-.24-1.29-.51-1.92-.8-1.68-.78-3.29-1.7-4.81-2.78-.56-.4-1.12-.83-1.65-1.27-1.43-1.18-2.74-2.5-3.93-3.92-.43-.54-.86-1.09-1.26-1.66-1.08-1.51-2.01-3.11-2.78-4.81-.29-.62-.55-1.27-.8-1.92-.65-1.73-1.13-3.54-1.44-5.36-.11-.69-.2-1.38-.27-2.07-.17-1.84-.17-3.71,0-5.55.07-.7.16-1.38.27-2.07.31-1.83.79-3.63,1.44-5.37.24-.64.5-1.29.8-1.92.77-1.68,1.7-3.29,2.77-4.81.4-.56.83-1.12,1.27-1.65,1.18-1.43,2.5-2.74,3.93-3.93.53-.44,1.09-.86,1.65-1.26,1.51-1.08,3.12-2.01,4.81-2.78.63-.29,1.28-.55,1.92-.8,1.74-.65,3.54-1.13,5.37-1.44.69-.11,1.37-.2,2.07-.27,1.84-.17,3.7-.17,5.55,0,.69.07,1.38.16,2.07.27,1.82.31,3.62.79,5.36,1.44.65.24,1.29.5,1.92.8,1.69.77,3.29,1.7,4.81,2.77.56.4,1.12.83,1.65,1.27,1.43,1.18,2.75,2.5,3.93,3.93.44.53.87,1.09,1.27,1.65,1.08,1.51,2,3.12,2.77,4.81.29.63.56,1.28.81,1.92.64,1.74,1.13,3.54,1.43,5.37.12.69.21,1.37.27,2.07.18,1.84.18,3.7,0,5.55Z"/>
      <path class="cls-2" d="M9.04,23.46c-.29.63-.55,1.28-.8,1.92l-.33-1.26,1.13-.66Z"/>
      <polygon class="cls-2" points="8.33 14.66 7.69 16.85 7.44 19.34 5.42 20.8 3.83 22.43 4.33 20.11 5.21 18.05 6.56 16.26 8.33 14.66"/>
      <polygon class="cls-2" points="7.91 24.12 5.96 25.52 4.2 27.18 3.79 24.71 3.83 22.43 5.42 20.8 7.44 19.34 7.52 21.75 7.91 24.12"/>
      <path class="cls-2" d="M8.25,25.38c-.65,1.74-1.13,3.54-1.44,5.37l-.92.93-.99-2.2-.71-2.31,1.76-1.65,1.95-1.4.33,1.26Z"/>
      <path class="cls-2" d="M6.81,30.75c-.11.69-.2,1.37-.27,2.07l-.64-1.14.92-.93Z"/>
      <polygon class="cls-2" points="4.2 27.18 2.62 29.11 1.52 31.11 1.39 28.74 1.72 26.51 2.55 24.43 3.83 22.43 3.79 24.71 4.2 27.18"/>
      <polygon class="cls-2" points="5.89 31.68 4.37 33.54 3.09 35.59 2.06 33.31 1.52 31.11 2.62 29.11 4.2 27.18 4.9 29.48 5.89 31.68"/>
      <path class="cls-2" d="M6.53,38.37l-.64,1.14-1.52-1.86-1.28-2.06,1.28-2.05,1.52-1.86.64,1.14c-.17,1.84-.17,3.71,0,5.55Z"/>
      <path class="cls-2" d="M6.81,40.43l-.92-.93.64-1.14c.07.69.16,1.38.27,2.07Z"/>
      <polygon class="cls-2" points="3.09 35.59 2.06 37.88 1.52 40.08 .78 37.83 .52 35.62 .52 35.59 .78 33.36 1.52 31.11 2.06 33.31 3.09 35.59"/>
      <polygon class="cls-2" points="5.89 39.51 4.9 41.69 4.2 44.01 2.62 42.07 1.52 40.08 2.06 37.88 3.09 35.59 4.37 37.64 5.89 39.51"/>
      <path class="cls-2" d="M8.25,45.79l-.33,1.27-1.95-1.41-1.76-1.64.71-2.32.99-2.19.92.93c.31,1.82.79,3.63,1.44,5.36Z"/>
      <path class="cls-2" d="M9.04,47.72l-1.13-.65.33-1.27c.24.65.5,1.3.8,1.92Z"/>
      <polygon class="cls-2" points="3.79 46.47 3.84 48.75 2.55 46.76 1.72 44.68 1.4 42.45 1.52 40.08 2.62 42.07 4.2 44.01 3.79 46.47"/>
      <polygon class="cls-2" points="7.91 47.06 7.52 49.44 7.44 51.85 5.42 50.39 3.84 48.75 3.79 46.47 4.2 44.01 5.96 45.65 7.91 47.06"/>
      <path class="cls-2" d="M11.83,53.83l-2.26-.85-2.14-1.14.08-2.41.39-2.38,1.13.65c.77,1.69,1.7,3.29,2.78,4.81v1.31Z"/>
      <path class="cls-2" d="M13.08,54.19l-1.25-.35v-1.31c.39.57.82,1.12,1.25,1.66Z"/>
      <polygon class="cls-2" points="8.33 56.52 6.56 54.93 5.22 53.13 4.33 51.07 3.84 48.75 5.42 50.39 7.44 51.85 7.69 54.34 8.33 56.52"/>
      <polygon class="cls-2" points="12.61 58.58 10.27 57.69 8.33 56.52 7.69 54.34 7.44 51.85 9.58 52.99 11.83 53.83 12.07 56.23 12.61 58.58"/>
      <path class="cls-2" d="M17.36,59.36l-2.4-.23-2.36-.55-.54-2.35-.23-2.4,1.25.35c1.19,1.42,2.5,2.74,3.93,3.92l.35,1.26Z"/>
      <path class="cls-2" d="M18.66,59.37h-1.3s-.35-1.27-.35-1.27c.53.44,1.09.87,1.65,1.27Z"/>
      <polygon class="cls-2" points="14.67 62.87 12.56 61.79 10.8 60.4 9.41 58.64 8.33 56.52 10.27 57.69 12.61 58.58 13.5 60.92 14.67 62.87"/>
      <polygon class="cls-2" points="19.35 63.75 16.86 63.5 14.67 62.87 13.5 60.92 12.61 58.58 14.97 59.13 17.36 59.36 18.21 61.62 19.35 63.75"/>
      <path class="cls-2" d="M24.13,63.27l-2.38.39-2.41.08-1.14-2.13-.85-2.26h1.3c1.51,1.09,3.12,2.01,4.81,2.79l.66,1.12Z"/>
      <path class="cls-2" d="M25.39,62.95l-1.26.32-.66-1.12c.63.28,1.28.55,1.92.8Z"/>
      <polygon class="cls-2" points="22.44 67.35 20.12 66.86 18.06 65.97 16.27 64.63 14.67 62.87 16.86 63.5 19.35 63.75 20.81 65.77 22.44 67.35"/>
      <polygon class="cls-2" points="27.19 67 24.72 67.39 22.44 67.35 20.81 65.77 19.35 63.75 21.76 63.67 24.13 63.27 25.53 65.24 27.19 67"/>
      <path class="cls-2" d="M31.69,65.3l-2.2,1-2.31.71-1.65-1.76-1.4-1.96,1.26-.32c1.74.64,3.54,1.13,5.37,1.43l.93.92Z"/>
      <path class="cls-2" d="M32.83,64.65l-1.14.64-.93-.92c.69.12,1.37.21,2.07.27Z"/>
      <polygon class="cls-2" points="31.12 69.68 28.75 69.8 26.52 69.48 24.44 68.64 22.44 67.35 24.72 67.39 27.19 67 29.12 68.57 31.12 69.68"/>
      <polygon class="cls-2" points="35.6 68.11 33.32 69.13 31.12 69.68 29.12 68.57 27.19 67 29.49 66.3 31.69 65.3 33.55 66.83 35.6 68.11"/>
      <path class="cls-2" d="M39.52,65.3l-1.86,1.53-2.06,1.28-2.05-1.28-1.86-1.53,1.14-.64c1.84.18,3.71.18,5.55,0l1.14.64Z"/>
      <path class="cls-2" d="M40.45,64.38l-.93.92-1.14-.64c.7-.06,1.38-.15,2.07-.27Z"/>
      <polygon class="cls-2" points="40.09 69.68 37.84 70.41 35.6 70.67 33.37 70.41 31.12 69.68 33.32 69.13 35.6 68.11 37.89 69.13 40.09 69.68"/>
      <polygon class="cls-2" points="44.02 67 42.08 68.57 40.09 69.68 37.89 69.13 35.6 68.11 37.65 66.83 39.52 65.3 41.7 66.3 44.02 67"/>
      <path class="cls-2" d="M47.07,63.27l-1.41,1.96-1.64,1.76-2.32-.71-2.19-1,.93-.92c1.82-.3,3.63-.79,5.36-1.43l1.27.32Z"/>
      <path class="cls-2" d="M47.73,62.15l-.65,1.13-1.27-.32c.65-.24,1.3-.51,1.92-.81Z"/>
      <polygon class="cls-2" points="48.76 67.35 46.77 68.64 44.69 69.48 42.46 69.8 40.09 69.68 42.08 68.57 44.02 67 46.48 67.39 48.76 67.35"/>
      <polygon class="cls-2" points="51.86 63.75 50.4 65.77 48.76 67.35 46.48 67.39 44.02 67 45.66 65.24 47.07 63.27 49.45 63.67 51.86 63.75"/>
      <path class="cls-2" d="M53.84,59.36l-.85,2.26-1.14,2.13-2.41-.08-2.38-.39.65-1.13c1.69-.77,3.3-1.69,4.81-2.77h1.31Z"/>
      <path class="cls-2" d="M54.2,58.11l-.35,1.26h-1.31c.57-.39,1.12-.82,1.66-1.26Z"/>
      <polygon class="cls-2" points="56.53 62.86 54.94 64.63 53.14 65.97 51.08 66.86 48.76 67.35 50.4 65.77 51.86 63.75 54.35 63.5 56.53 62.86"/>
      <polygon class="cls-2" points="58.59 58.58 57.7 60.92 56.53 62.86 54.35 63.5 51.86 63.75 53 61.62 53.84 59.36 56.24 59.12 58.59 58.58"/>
      <path class="cls-2" d="M59.37,53.83l-.23,2.4-.55,2.35-2.35.54-2.4.24.35-1.26c1.42-1.18,2.74-2.5,3.92-3.93l1.26-.34Z"/>
      <path class="cls-2" d="M59.38,52.52v1.31s-1.27.34-1.27.34c.44-.53.87-1.09,1.27-1.65Z"/>
      <polygon class="cls-2" points="62.88 56.52 61.8 58.64 60.41 60.39 58.65 61.79 56.53 62.86 57.7 60.92 58.59 58.58 60.93 57.69 62.88 56.52"/>
      <polygon class="cls-2" points="63.76 51.85 63.51 54.34 62.88 56.52 60.93 57.69 58.59 58.58 59.14 56.23 59.37 53.83 61.63 52.98 63.76 51.85"/>
      <path class="cls-2" d="M63.76,51.85l-2.13,1.13-2.26.86v-1.31c1.09-1.51,2.01-3.12,2.79-4.81l1.12-.66.39,2.38.08,2.42Z"/>
      <path class="cls-2" d="M63.28,47.05l-1.12.66c.28-.63.55-1.27.8-1.92l.32,1.26Z"/>
      <polygon class="cls-2" points="67.36 48.75 66.87 51.07 65.98 53.13 64.64 54.93 62.88 56.52 63.51 54.34 63.76 51.85 65.79 50.39 67.36 48.75"/>
      <polygon class="cls-2" points="67.4 46.47 67.36 48.75 65.79 50.39 63.76 51.85 63.68 49.43 63.28 47.05 65.25 45.65 67.01 44 67.4 46.47"/>
      <path class="cls-2" d="M67.01,44l-1.76,1.65-1.96,1.4-.32-1.26c.64-1.74,1.13-3.54,1.43-5.36l.92-.94,1,2.2.71,2.31Z"/>
      <path class="cls-2" d="M65.31,39.5l-.92.94c.12-.69.21-1.38.27-2.07l.64,1.13Z"/>
      <polygon class="cls-2" points="69.81 42.45 69.49 44.67 68.65 46.75 67.36 48.75 67.4 46.47 67.01 44 68.58 42.07 69.69 40.08 69.81 42.45"/>
      <polygon class="cls-2" points="69.69 40.08 68.58 42.07 67.01 44 66.31 41.69 65.31 39.5 66.84 37.63 68.12 35.59 69.14 37.87 69.69 40.08"/>
      <path class="cls-2" d="M68.12,35.59l-1.28,2.05-1.53,1.86-.64-1.13c.18-1.85.18-3.71,0-5.55l.64-1.14,1.53,1.86,1.28,2.05Z"/>
      <path class="cls-2" d="M65.31,31.68l-.64,1.14c-.06-.7-.15-1.38-.27-2.07l.92.93Z"/>
      <polygon class="cls-2" points="70.68 35.59 70.42 37.82 69.69 40.08 69.14 37.87 68.12 35.59 69.14 33.31 69.69 31.11 70.42 33.36 70.68 35.59"/>
      <polygon class="cls-2" points="69.69 31.11 69.14 33.31 68.12 35.59 66.84 33.54 65.31 31.68 66.31 29.48 67.01 27.18 68.58 29.11 69.69 31.11"/>
      <path class="cls-2" d="M67.01,27.18l-.71,2.31-1,2.2-.92-.93c-.3-1.83-.79-3.63-1.43-5.37l.32-1.26,1.96,1.4,1.76,1.65Z"/>
      <path class="cls-2" d="M63.28,24.12l-.32,1.26c-.24-.64-.51-1.29-.81-1.92h.01l1.12.66Z"/>
      <polygon class="cls-2" points="69.81 28.73 69.69 31.11 68.58 29.11 67.01 27.18 67.4 24.71 67.36 22.43 68.65 24.43 69.49 26.51 69.81 28.73"/>
      <polygon class="cls-2" points="67.4 24.71 67.01 27.18 65.25 25.52 63.28 24.12 63.68 21.75 63.76 19.33 65.78 20.79 67.36 22.43 67.4 24.71"/>
      <path class="cls-2" d="M63.76,19.33l-.08,2.42-.39,2.38-1.12-.66h-.01c-.77-1.68-1.69-3.29-2.77-4.81v-1.31s2.25.86,2.25.86l2.13,1.13Z"/>
      <path class="cls-2" d="M59.38,18.65c-.4-.56-.83-1.12-1.27-1.65l1.26.34v1.31Z"/>
      <polygon class="cls-2" points="67.36 22.43 65.78 20.79 63.76 19.33 63.51 16.85 62.87 14.66 64.64 16.25 65.98 18.05 66.87 20.11 67.36 22.43"/>
      <polygon class="cls-2" points="63.76 19.33 61.63 18.2 59.37 17.34 59.13 14.95 58.59 12.6 60.93 13.49 62.87 14.66 63.51 16.85 63.76 19.33"/>
      <path class="cls-2" d="M59.37,17.34l-1.26-.34c-1.18-1.43-2.5-2.75-3.93-3.93l-.34-1.26,2.4.24,2.35.54.54,2.35.24,2.4Z"/>
      <path class="cls-2" d="M54.19,13.07c-.53-.44-1.09-.87-1.65-1.27h1.31s.34,1.27.34,1.27Z"/>
      <polygon class="cls-2" points="62.87 14.66 60.93 13.49 58.59 12.6 57.7 10.26 56.53 8.32 58.65 9.4 60.4 10.79 61.8 12.55 62.87 14.66"/>
      <polygon class="cls-2" points="58.59 12.6 56.24 12.06 53.84 11.81 52.99 9.57 51.86 7.43 54.35 7.68 56.53 8.32 57.7 10.26 58.59 12.6"/>
      <path class="cls-2" d="M53.84,11.81h-1.31c-1.51-1.08-3.11-2.01-4.81-2.78l-.66-1.13,2.38-.39,2.42-.08,1.13,2.14.86,2.25Z"/>
      <path class="cls-2" d="M47.73,9.03c-.63-.29-1.27-.55-1.92-.8l1.26-.33.66,1.13Z"/>
      <path class="cls-2" d="M40.45,6.8c-.69-.11-1.38-.2-2.07-.27l1.13-.64.94.92Z"/>
      <path class="cls-2" d="M47.06,7.9l-1.26.33c-1.74-.65-3.54-1.13-5.36-1.44l-.94-.92,2.2-.99,2.31-.71,1.65,1.76,1.4,1.95Z"/>
      <polygon class="cls-2" points="51.86 7.43 49.44 7.51 47.06 7.9 45.66 5.95 44.01 4.19 46.48 3.78 48.76 3.82 50.4 5.41 51.86 7.43"/>
      <polygon class="cls-2" points="56.53 8.32 54.35 7.68 51.86 7.43 50.4 5.41 48.76 3.82 51.08 4.32 53.14 5.2 54.94 6.55 56.53 8.32"/>
      <path class="cls-2" d="M32.83,6.52c-.7.07-1.38.16-2.07.27l.93-.92,1.14.64Z"/>
      <path class="cls-2" d="M39.51,5.88l-1.13.64c-1.85-.17-3.71-.17-5.55,0l-1.14-.64,1.86-1.52,2.05-1.28,2.05,1.28,1.86,1.52Z"/>
      <polygon class="cls-2" points="44.01 4.19 41.7 4.89 39.51 5.88 37.64 4.36 35.6 3.08 37.88 2.05 40.09 1.51 42.08 2.61 44.01 4.19"/>
      <polygon class="cls-2" points="48.76 3.82 46.48 3.78 44.01 4.19 42.08 2.61 40.09 1.51 42.46 1.38 44.68 1.71 46.76 2.54 48.76 3.82"/>
      <polygon class="cls-2" points="40.09 1.51 37.88 2.05 35.6 3.08 33.32 2.05 31.12 1.51 33.37 .77 35.6 .51 35.62 .51 35.9 .54 36.73 .64 37.83 .77 40.09 1.51"/>
      <polygon class="cls-2" points="35.6 3.08 33.55 4.36 31.69 5.88 29.49 4.89 27.19 4.19 29.12 2.61 31.12 1.51 33.32 2.05 35.6 3.08"/>
      <path class="cls-2" d="M31.69,5.88l-.93.92c-1.83.31-3.63.79-5.37,1.44l-1.26-.33,1.4-1.95,1.65-1.76,2.31.71,2.2.99Z"/>
      <path class="cls-2" d="M25.39,8.24c-.64.24-1.29.5-1.92.8l.66-1.13,1.26.33Z"/>
      <path class="cls-2" d="M13.08,17c-.44.53-.87,1.09-1.27,1.65v-1.3s1.27-.35,1.27-.35Z"/>
      <path class="cls-2" d="M11.82,17.35v1.3c-1.08,1.51-2.01,3.12-2.78,4.81l-1.13.66-.39-2.38-.08-2.41,2.14-1.14,2.25-.85Z"/>
      <polygon class="cls-2" points="12.61 12.6 12.07 14.96 11.82 17.35 9.58 18.2 7.44 19.34 7.69 16.85 8.33 14.66 10.27 13.49 12.61 12.6"/>
      <polygon class="cls-2" points="14.67 8.32 13.5 10.26 12.61 12.6 10.27 13.49 8.33 14.66 9.41 12.55 10.8 10.79 12.56 9.4 14.67 8.32"/>
      <polygon class="cls-2" points="22.44 3.83 20.8 5.41 19.34 7.43 16.86 7.68 14.67 8.32 16.26 6.55 18.06 5.21 20.12 4.32 22.44 3.83"/>
      <polygon class="cls-2" points="19.34 7.43 18.21 9.57 17.35 11.82 14.96 12.06 12.61 12.6 13.5 10.26 14.67 8.32 16.86 7.68 19.34 7.43"/>
      <path class="cls-2" d="M17.35,11.82l-.34,1.25c-1.43,1.19-2.75,2.5-3.93,3.93l-1.26.35.24-2.4.54-2.36,2.35-.54,2.4-.23Z"/>
      <path class="cls-2" d="M18.66,11.81c-.56.4-1.12.82-1.65,1.26l.34-1.25h1.31Z"/>
      <path class="cls-2" d="M24.13,7.9l-.66,1.13c-1.68.77-3.29,1.7-4.81,2.78h-1.31s.86-2.25.86-2.25l1.13-2.14,2.42.08,2.38.39Z"/>
      <polygon class="cls-2" points="27.19 4.19 25.53 5.95 24.13 7.9 21.76 7.51 19.34 7.43 20.8 5.41 22.44 3.83 24.72 3.78 27.19 4.19"/>
      <polygon class="cls-2" points="31.12 1.51 29.12 2.61 27.19 4.19 24.72 3.78 22.44 3.83 24.44 2.54 26.52 1.71 28.74 1.38 31.12 1.51"/>
    </g>
  </g>
</svg>