<?xml version="1.0" encoding="UTF-8"?>
<svg xmlns="http://www.w3.org/2000/svg" viewBox="0 0 84.2 103.07">
  <defs>
    <style>
      .cls-1 {
        fill: #f7f6fb;
      }
    </style>
  </defs>
  <g>
    <path class="cls-1" d="M82.84,85.79h0l-12.39.02-11.8.67-11.17,1.31-10.55,1.95-9.93,2.58-9.35,3.17-8.95,3.55L0,103.07h0l3.69-13.81,3.97-14.89,4.38-15.68,5.09-15.72,2.96-7.5,3.32-7.04,3.73-6.42,4.17-5.69,4.61-4.88,5.03-4.04,5.38-3.19,5.62-2.32,5.7-1.43,5.57-.45,2.66.17,2.54.46,2.39.75,2.22,1.06,2.02,1.37,1.81,1.68,1.58,2,1.36,2.3,1.14,2.59.93,2.85,1.31,6.41.71,7.17.29,7.7-.02,16.25-.07,33.18h0l-1.27-.14Z"/>
  </g>
</svg>